<svg xmlns="http://www.w3.org/2000/svg" xmlns:xlink="http://www.w3.org/1999/xlink" version="1.1" x="0px" y="0px" viewBox="0 0 100 100" style="enable-background:new 0 0 100 100;" xml:space="preserve"><g><path d="M100,18.272c0,0-16.795-19.098-29.375-18.245C67.633,0.23,65,1.417,62.805,3.553L2.572,62.133   c-2.033,1.978-2.887,4.718-2.469,7.925c0.635,4.871,4.21,10.915,10.627,17.965c9.418,10.347,15.923,12.212,19.721,11.955   c0,0,0.001,0,0.001,0c2.585-0.175,4.105-1.305,4.781-1.962l60.232-58.581c3.254-3.165,2.867-8.716-1.063-15.719L100,18.272z    M16.236,82.668C9.002,74.722,5.863,68.094,8.239,65.783l53.117-51.66c0.207,1.029,1.354,6.328,9.57,15.354   c7.777,8.545,13.657,10.171,14.621,10.443L32.054,91.947C31.433,92.552,26.248,93.667,16.236,82.668z M66.631,7.756   c3.306-3.216,8.594-1.58,12.449,0.358c4.215,2.119,8.96,5.73,12.971,9.84l-2.075,2.122c-1.888-3.074-5.464-6.54-5.464-6.54   L73.729,24.022C67.064,16.334,64.283,10.038,66.631,7.756z M76.373,26.91l7.949-7.732c2.963,3.48,9.889,13.552,7.318,16.053   C89.143,37.66,79.525,30.13,76.373,26.91z M46.096,56.543c6.914-6.725,13.828-13.448,20.741-20.173   c0.85,0.842,1.739,1.642,2.663,2.399c-6.913,6.724-13.827,13.448-20.741,20.172C47.834,58.186,46.946,57.384,46.096,56.543z    M51.946,61.28c6.913-6.724,13.827-13.447,20.741-20.172c1,0.657,2.034,1.266,3.098,1.825c-6.913,6.724-13.826,13.448-20.74,20.173   C53.98,62.547,52.947,61.938,51.946,61.28z M39.211,47.291c-0.573-1.072-1.099-2.176-1.574-3.308   c6.914-6.725,13.828-13.448,20.741-20.172c0.476,1.132,1.001,2.236,1.573,3.309C53.038,33.843,46.125,40.567,39.211,47.291z    M31.386,86.117c-7.778-4.088-13.935-10.851-17.408-19.125c6.914-6.724,13.827-13.447,20.741-20.172   c3.473,8.273,9.629,15.037,17.408,19.124C45.213,72.669,38.3,79.393,31.386,86.117z M41.276,50.721   c6.914-6.724,13.827-13.448,20.741-20.172c0.674,1,1.393,1.966,2.154,2.894C57.258,40.166,50.344,46.89,43.43,53.614   C42.67,52.687,41.951,51.721,41.276,50.721z"></path></g></svg>