<svg xmlns="http://www.w3.org/2000/svg" xmlns:xlink="http://www.w3.org/1999/xlink" version="1.1" x="0px" y="0px" viewBox="0 0 100 100" enable-background="new 0 0 100 100" xml:space="preserve"><ellipse cx="14.978" cy="31.952" rx="3.761" ry="3.789"></ellipse><polygon points="6.972,71.771 6.966,70.379 19.573,70.326 19.115,61.848 5.83,59.469 7.059,42.675 8.448,42.777 7.31,58.321   20.446,60.673 21.041,71.711 6.972,71.771 "></polygon><ellipse cx="84.539" cy="32.056" rx="3.657" ry="3.685"></ellipse><polygon points="92.442,71.771 78.373,71.711 78.968,60.673 92.104,58.321 90.967,42.777 92.355,42.675 93.584,59.469   80.298,61.848 79.841,70.326 92.447,70.379 92.442,71.771 "></polygon><polygon points="28.691,46.322 29.639,46.472 29.639,48.642 19.386,48.642 16.823,45.487 15.836,52.782 26.288,55.543   25.695,71.711 22.146,71.711 21.357,59.88 8.543,57.316 10.514,37.402 17.02,37.6 22.146,45.289 27.561,46.144 "></polygon><path d="M22.861,49.129v1.392h9.364v21.168h0.254v0.022H67.82v-0.022V50.521h9.253v-1.392H22.861z M33.879,70.319V50.521h32.287  v19.799H33.879z"></path><polygon points="71.517,46.236 78.507,45.289 82.394,37.6 88.074,37.402 90.872,57.316 78.056,59.88 77.266,71.711 73.718,71.711   73.221,60.002 72.153,60.107 73.127,55.543 83.578,52.782 82.822,47.61 81.526,46.979 80.028,48.642 69.774,48.642 69.774,46.472   70.31,46.4 "></polygon><ellipse cx="40.259" cy="32.034" rx="3.727" ry="3.756"></ellipse><polygon points="34.447,48.642 34.578,46.661 35.361,46.681 35.26,48.642 45.545,48.642 45.368,46.644 46.173,46.644 46.381,48.642   48.763,48.642 47.323,37.111 33.3,37.097 32.246,48.642 "></polygon><ellipse cx="58.844" cy="32.034" rx="3.727" ry="3.756"></ellipse><polygon points="53.032,48.642 53.163,46.661 53.946,46.681 53.845,48.642 64.13,48.642 63.953,46.644 64.758,46.644 64.966,48.642   67.348,48.642 65.908,37.111 51.885,37.097 50.831,48.642 "></polygon></svg>