<svg xmlns:dc="http://purl.org/dc/elements/1.1/" xmlns:cc="http://creativecommons.org/ns#" xmlns:rdf="http://www.w3.org/1999/02/22-rdf-syntax-ns#" xmlns:svg="http://www.w3.org/2000/svg" xmlns="http://www.w3.org/2000/svg" xmlns:sodipodi="http://sodipodi.sourceforge.net/DTD/sodipodi-0.dtd" xmlns:inkscape="http://www.inkscape.org/namespaces/inkscape" version="1.1" x="0px" y="0px" viewBox="0 0 100 100"><g transform="translate(0,-952.36218)"><path style="text-indent:0;text-transform:none;direction:ltr;block-progression:tb;baseline-shift:baseline;color:#000000;enable-background:accumulate;" d="m 53.999963,970.36217 c -6.8914,0 -12.7001,4.73287 -14.4375,11.09375 -2.1668,-4.18696 -6.5506,-7.09375 -11.5625,-7.09375 -7.1441,0 -13,5.85581 -13,13 0,4.61079 2.4434,8.69034 6.0938,11 l -4.0938,0 c -1.5708,1.6e-4 -2.9998,1.42922 -3,3.00003 l 0,30 c 2e-4,1.5707 1.4292,2.9998 3,3 l 48,0 c 1.5708,-2e-4 2.9998,-1.4293 3,-3 l 0,-4.0625 14.1875,3.9375 c 1.772,0.4983 3.8044,-1.0343 3.8125,-2.875 l 0,-24 c 0.013,-1.7039 -1.6844,-3.2129 -3.375,-3 -4.8467,1.2757 -9.7633,2.682 -14.625,4.0312 l 0,-4.0312 c -2e-4,-1.57081 -1.4292,-2.99987 -3,-3.00003 l -3.5625,0 c 4.5018,-2.5967 7.5625,-7.45786 7.5625,-13 0,-8.24877 -6.7513,-15 -15,-15 z m 0,6 c 5.0059,0 9,3.99395 9,9 0,5.00607 -3.994,9 -9,9 -5.0061,0 -9,-3.9939 -9,-9 0,-5.00608 3.9939,-9 9,-9 z m -26,4 c 3.9015,0 7,3.09849 7,7 0,3.90151 -3.0985,7 -7,7 -3.9015,0 -7,-3.09849 -7,-7 0,-3.90151 3.0985,-7 7,-7 z m 12.3125,11.125 c 1.3037,2.89991 3.5119,5.29564 6.25,6.875 l -11.6563,0 c 2.5153,-1.59147 4.4429,-4.00972 5.4063,-6.875 z m -20.3125,12.87503 42,0 0,24 -42,0 z m 60,3.9375 0,16.0937 -12,-3.3437 0,-9.4063 z" fill="#000000" fill-opacity="1" stroke="none" marker="none" visibility="visible" display="inline" overflow="visible"></path></g></svg>