<svg xmlns="http://www.w3.org/2000/svg" xmlns:xlink="http://www.w3.org/1999/xlink" version="1.1" x="0px" y="0px" viewBox="0 0 100 100" enable-background="new 0 0 100 100" xml:space="preserve"><path d="M82.789,42.851c-0.648-0.926-1.261-1.801-1.625-2.421c-1.381-2.356-1.493-2.652-0.951-5.362  c0.499-2.497-0.188-4.83-0.915-7.299c-0.219-0.744-0.443-1.506-0.642-2.297l-0.098-0.405C74.564,8.36,59.721,4.662,47.972,4.5  c-0.212-0.003-0.421-0.004-0.63-0.004c-25.576,0-32.106,21.715-32.37,29.39c-0.248,7.162,3.577,16.229,6.239,20.103  c2.536,3.689,4.469,11.196,4.7,18.255c0.226,6.868-8.209,20.588-8.294,20.726c-0.29,0.47-0.146,1.086,0.324,1.377  c0.164,0.102,0.346,0.149,0.525,0.149c0.335,0,0.662-0.168,0.852-0.474c0.36-0.584,8.837-14.374,8.591-21.844  c-0.242-7.403-2.318-15.349-5.05-19.322c-2.513-3.654-6.121-12.188-5.89-18.901c0.01-0.276,1.747-27.459,30.344-27.459  c0.208,0,0.421,0.002,0.631,0.005c16.057,0.221,25.702,6.624,28.669,19.031l0.104,0.426c0.204,0.817,0.436,1.606,0.662,2.376  c0.685,2.323,1.275,4.329,0.873,6.342c-0.655,3.272-0.421,4.022,1.188,6.767c0.404,0.689,1.039,1.597,1.712,2.557  c1.283,1.831,3.223,4.598,3.289,5.725c0.076,1.294-0.29,1.719-1.957,2.275c-1.217,0.405-2.028,1.062-2.413,1.949  c-0.245,0.567-0.417,1.505,0.156,2.747c0.188,0.408,0.222,0.772,0.099,1.08c-0.131,0.329-0.448,0.614-0.87,0.783l-1.172,0.469  l0.724,1.033c0.757,1.081,0.757,1.405-0.006,2.168c-1.613,1.613-1.083,3.021-0.798,3.775l0.08,0.22  c0.169,0.508,0.537,3.903-1.063,4.746c-0.865,0.455-3.258,0.761-5.369,1.032c-3.157,0.404-6.141,0.786-7.401,1.81  c-2.31,1.877-3.366,5.594-2.692,9.469c0.193,1.113-0.078,2.1-0.454,3.469c-0.421,1.534-0.945,3.438-0.988,6.246  C60.307,93.547,60.748,94,61.3,94c0.006,0,0.011,0,0.016,0c0.546,0,0.991-0.428,1-0.975c0.039-2.555,0.506-4.244,0.917-5.743  c0.411-1.497,0.766-2.789,0.496-4.343c-0.552-3.175,0.227-6.147,1.983-7.575c0.818-0.665,4.041-1.078,6.395-1.38  c2.607-0.334,4.86-0.622,6.046-1.246c2.812-1.48,2.394-6.051,2.028-7.148c-0.031-0.094-0.067-0.191-0.106-0.293  c-0.232-0.615-0.36-0.954,0.341-1.655c1.425-1.425,1.328-2.698,0.785-3.81c0.442-0.357,0.779-0.806,0.983-1.317  c0.229-0.575,0.392-1.504-0.141-2.658c-0.212-0.459-0.258-0.834-0.137-1.115c0.186-0.428,0.76-0.696,1.21-0.847  c1.695-0.565,3.49-1.409,3.32-4.289C86.345,48.034,84.867,45.814,82.789,42.851z"></path><path d="M63.644,43.355c-0.041-0.195-0.013-0.261,0.277-0.637c0.313-0.405,0.784-1.018,0.684-1.961  c-0.059-0.554-0.228-1.209-0.511-1.886c0.844,0.013,1.833-0.029,2.681-0.22c1.028-0.231,1.648-0.515,2.146-0.743  c0.403-0.185,0.722-0.33,1.207-0.435c1.38-0.296,4.163-1.787,4.658-4.052c0.175-0.796,0.129-1.366,0.036-1.778  c0.918-0.734,1.543-2.13,0.936-4.208c-0.313-1.071-0.458-1.825-0.573-2.431c-0.122-0.637-0.218-1.139-0.449-1.611  c-0.044-0.092-0.112-0.278-0.209-0.534c-0.19-0.5-0.468-1.23-0.834-2.059c-0.051-0.284-0.168-0.527-0.338-0.734  c-0.992-2.076-2.499-4.521-4.599-5.684c-1.632-0.904-2.058-1.346-2.399-1.7c-0.472-0.488-0.846-0.82-2.063-1.31l-1.296-0.527  c-3.411-1.396-6.341-2.563-7.646-2.718c-0.879-0.104-1.967-0.056-3.018-0.009c-0.813,0.036-1.655,0.072-2.093,0.012  c-0.749-0.102-1.732,0.073-2.688,0.244c-0.657,0.118-1.403,0.257-1.756,0.219c-0.142-0.013-0.303-0.032-0.483-0.054  c-1.176-0.138-3.145-0.371-5.881,0.168c-2.282,0.451-3.205,1.2-3.814,1.696c-0.129,0.104-0.306,0.248-0.363,0.264  c-0.531,0.148-5.121,1.481-6.833,3.858c-1.478,1.066-4.214,5.085-4.243,5.129c-0.313,0.468-0.827,1.447-1.372,2.485  c-0.528,1.006-1.127,2.146-1.433,2.597c-0.827,1.218-1.844,4.225-2.136,5.116c-0.068,0.208-0.165,0.44-0.272,0.702  c-0.515,1.253-1.285,3.194-0.923,5.953c0.005,0.017,0.002,0.036,0.008,0.053c0.094,0.688,0.238,1.412,0.497,2.205l0.439,1.362  c0.198,0.619,0.38,1.174,0.558,1.702c0.005,0.014,0.009,0.027,0.014,0.041c0.88,2.604,1.625,4.117,3.337,4.663  c0.937,0.298,1.662,0.261,2.243,0.23c0.012-0.001,0.021-0.001,0.033-0.001c0.442,1.341,1.833,4.248,5.755,5.042  c1.789,0.362,3.084,0.475,3.998,0.539c0.476,1.084,0.694,3.542,0.695,5.147c0,0.553,0.448,1,1,1c0.553,0,1-0.448,1-1  c0-0.442-0.019-1.832-0.216-3.284c0.269,0.142,0.564,0.219,0.884,0.219c0.2,0,0.41-0.028,0.629-0.084  c0.586-0.148,1.036-0.613,1.463-1.178c-0.147,1.041-0.248,2.358-0.269,4.068C40.103,57.786,40.545,58,41.097,58  c0.005,0,0.009,0,0.013,0c0.547,0,0.993-0.193,1-0.741c0.033-2.664,0.395-5.15,0.789-5.813c0.722-0.164,1.33-0.583,1.728-1.193  c0.443-0.679,0.593-1.57,0.418-2.268c-0.003-0.028-0.001-0.054-0.006-0.082c0.017-0.058,0.13-0.237,0.389-0.37  c0.231-0.118,0.608-0.213,1.088-0.004c0.398,0.172,0.801,0.388,1.211,0.605c1.355,0.721,2.893,1.535,4.679,1.221  c0.504-0.088,0.878-0.024,1.351,0.056c1.088,0.186,2.318,0.394,4.825-0.996C62.239,46.387,64.075,45.368,63.644,43.355z   M52.422,10.117c0.927-0.041,1.976-0.088,2.694-0.003c1.141,0.135,4.885,1.667,7.123,2.582l1.307,0.532  c0.909,0.365,1.073,0.535,1.37,0.843c0.412,0.428,0.977,1.012,2.87,2.062c0.879,0.487,1.646,1.309,2.304,2.244  c-0.195-0.106-0.365-0.214-0.449-0.328c-0.897-1.216-1.887-1.803-2.913-1.741c-0.775,0.044-1.361,0.444-1.758,0.832  c-0.45-0.194-0.932-0.294-1.414-0.265c-0.078-0.145-0.175-0.364-0.252-0.539c-0.416-0.946-1.046-2.377-2.722-3.225  c-1.421-0.718-2.123-0.657-2.772-0.521c-0.218,0.043-0.306,0.063-0.878-0.366c-1.471-1.101-3.106-0.617-4.298-0.265  c-0.375,0.111-0.93,0.274-1.047,0.273c-0.751-0.549-0.054-2.025-0.026-2.083C51.836,10.141,52.119,10.13,52.422,10.117z   M45.078,10.526c0.2,0.023,0.378,0.045,0.536,0.06c0.617,0.056,1.433-0.09,2.292-0.243c0.501-0.089,1.079-0.19,1.535-0.227  c-0.348,1.178-0.373,2.749,0.964,3.729c0.835,0.614,1.833,0.317,2.797,0.032c1.126-0.334,1.91-0.518,2.531-0.052  c1.089,0.813,1.713,0.88,2.48,0.724c0.286-0.06,0.556-0.113,1.467,0.348c1.036,0.523,1.438,1.438,1.794,2.245  c0.341,0.774,0.848,1.943,2.149,1.737c0.594-0.093,1.188,0.423,1.403,0.984c0.199,0.526,0.062,0.945-0.411,1.245  c-1.131,0.722-3.248,0.406-5.101-1.582c-0.377-0.405-1.011-0.426-1.413-0.05c-0.404,0.376-0.427,1.009-0.05,1.413  c1.717,1.843,3.605,2.567,5.21,2.567c0.935,0,1.773-0.245,2.426-0.659c1.269-0.806,1.743-2.236,1.208-3.645  c-0.097-0.255-0.229-0.487-0.375-0.707c0.105-0.076,0.216-0.137,0.326-0.143c0.319,0.001,0.743,0.335,1.185,0.933  c0.587,0.795,1.631,1.18,2.552,1.52c0.364,0.134,0.876,0.326,1.11,0.477c0.432,0.941,0.755,1.79,0.962,2.337  c0.129,0.339,0.224,0.584,0.282,0.703c0.114,0.232,0.181,0.581,0.281,1.108c0.117,0.614,0.278,1.454,0.618,2.616  c0.369,1.263,0.026,1.824-0.244,2.061c-0.272-0.114-0.683-0.583-0.84-1.901c-0.159-1.341-0.663-2.342-1.497-2.976  c-1.084-0.825-2.291-0.666-2.423-0.647c-0.546,0.084-0.92,0.595-0.836,1.141s0.594,0.918,1.141,0.836c0.004,0,0.5-0.048,0.908,0.263  c0.386,0.293,0.628,0.838,0.721,1.62c0.181,1.523,0.688,2.603,1.508,3.207c0.185,0.136,0.365,0.226,0.54,0.299  c0.074,0.208,0.153,0.477,0.017,1.096c-0.247,1.129-2.038,2.291-3.125,2.524c-0.699,0.149-1.167,0.364-1.62,0.571  c-0.477,0.219-0.928,0.425-1.753,0.61c-1.167,0.262-2.782,0.167-3.513,0.103c-0.449-0.531-0.98-1.032-1.625-1.456  c-0.042-0.028-0.084-0.055-0.127-0.082c1.457-0.536,2.927-1.581,3.504-3.469c0.162-0.528-0.136-1.087-0.664-1.248  c-0.53-0.164-1.088,0.137-1.248,0.664c-0.474,1.548-1.982,2.175-3.116,2.413c0.413-0.754,0.743-1.668,0.342-2.539  c-0.23-0.503-0.826-0.729-1.329-0.497c-0.501,0.231-0.723,0.819-0.492,1.32c0.054,0.266-0.458,1.073-0.65,1.377  c-0.059,0.092-0.111,0.18-0.165,0.269c-0.687-0.077-1.414-0.022-2.221,0.266c-0.716,0.253-1.521,0.136-2.312-0.175  c0.35-0.039,0.671-0.252,0.815-0.6c0.158-0.378,0.065-0.799-0.201-1.077c-0.013-0.161,0.002-0.614,0.351-1.556  c1.038-2.81-0.791-7.006-2.49-8.153c-0.741-0.5-1.764-0.625-2.665-0.734c-0.361-0.044-0.864-0.105-1.159-0.188  c0.814-2.158-0.008-3.956-2.268-4.942c-0.133-0.059-0.267-0.159-0.389-0.292c-1.297-1.415-3.261-1.497-4.629-0.951  c-0.584,0.233-1.017,0.336-1.269,0.346c0.109-0.135,0.248-0.285,0.349-0.394c0.541-0.588,1.666-1.811,0.618-3.003  c-0.415-0.471-0.939-0.781-1.476-1.001c0.346-0.138,0.775-0.268,1.303-0.383c1.386,0.328,1.873,1.214,2.163,1.753  c0.148,0.276,0.289,0.543,0.605,0.712c0.929,0.494,1.769,0.155,2.271-0.054C44.793,13.069,45.012,13,45.085,13  c0.001,0,0.003,0,0.005,0c0.063,0,0.096,0.109,0.18,0.472c0.139,0.599,0.349,1.48,1.417,2.143c0.21,0.13,0.479,0.425,0.763,0.736  c0.803,0.881,2.023,2.221,4.219,2.221c0.643,0,1.369-0.114,2.192-0.39c0.524-0.175,0.807-0.741,0.632-1.265  s-0.741-0.809-1.265-0.632c-2.403,0.801-3.325-0.21-4.3-1.281c-0.381-0.418-0.741-0.813-1.188-1.09  c-0.348-0.215-0.408-0.423-0.522-0.915c-0.115-0.499-0.29-1.252-1.07-1.739c-0.905-0.564-1.759-0.21-2.268,0.001  c-0.197,0.082-0.322,0.129-0.407,0.15c-0.143-0.263-0.365-0.642-0.705-1.038C43.713,10.37,44.48,10.456,45.078,10.526z   M39.201,51.377c-0.245,0.353-0.654,0.941-0.778,1.027c-0.042,0.011-0.074,0.017-0.091,0.022c-0.047-0.069-0.137-0.244-0.264-0.674  c-0.36-1.227-1.438-1.299-2.685-1.382c-0.919-0.061-2.179-0.145-4.061-0.526c-1.854-0.375-2.941-1.385-3.568-2.312  c1.581,0.446,3.45-0.171,4.763-0.616c0.309-0.104,0.583-0.198,0.806-0.258c1.39-0.373,2.581-0.439,3.108-0.17  c0.402,0.205,1.157,0.404,2.456,0.738c1.211,0.313,3.649,0.944,4.227,1.32c-0.003,0.175-0.047,0.373-0.164,0.553  c-0.127,0.194-0.313,0.247-0.567,0.287c-0.081,0.013-0.188,0.03-0.309,0.07c-0.141,0.009-0.292,0.014-0.462,0.008  C40.552,49.395,39.868,50.417,39.201,51.377z M62.336,41.498c-0.332,0.431-0.888,1.152-0.647,2.276c0.037,0.173-0.138,0.4-0.44,0.66  c0.176-1.129-0.071-1.712-0.34-2.211c-0.133-0.247-0.178-0.33-0.069-0.807c0.229-0.999,0.021-1.967-0.584-2.726  c-0.679-0.851-1.854-1.4-2.996-1.4c-0.553,0-1,0.447-1,1s0.447,1,1,1c0.539,0,1.128,0.267,1.433,0.647  c0.227,0.285,0.292,0.623,0.198,1.033c-0.256,1.117-0.023,1.679,0.259,2.202c0.138,0.255,0.213,0.395,0.124,0.961  c-0.223,1.408-0.235,1.438-1.711,2.557c-1.854,1.018-2.607,0.894-3.47,0.747c-0.56-0.094-1.19-0.203-2.034-0.054  c-1.109,0.194-2.219-0.396-3.392-1.019c-0.459-0.244-0.91-0.486-1.355-0.68c-1.403-0.604-2.676-0.165-3.4,0.458  c-0.148,0.128-0.27,0.269-0.382,0.413c-0.891-0.388-2.207-0.768-4.141-1.267c-0.812-0.209-1.821-0.47-2.049-0.585  c-0.977-0.496-2.316-0.434-3.504-0.213c0.047-0.312-0.036-0.638-0.282-0.872c-0.008-0.008-0.795-0.799-0.471-1.982  c0.107-0.236,0.199-0.5,0.296-0.811c0.092-0.297,0.273-0.884,0.424-1.11c0.276-0.001,0.905,0.119,1.334,0.206  c0.558,0.114,1.194,0.241,1.81,0.268c0.475,1.249,1.501,2.218,2.984,2.767c0.313,0.116,1.118,0.386,1.825,0.386  c0.361,0,0.697-0.07,0.929-0.269c0.42-0.358,0.47-0.99,0.11-1.409c-0.252-0.296-0.637-0.409-0.993-0.323  c-0.315-0.028-2.259-0.271-2.928-1.714c0.165-0.154,0.315-0.334,0.429-0.571c0.136-0.283,0.217-0.644,0.268-1.021  c0.775,0.401,1.612,0.585,2.555,0.368c1.973-0.456,4.396-0.832,5.664,0.303c0.004,0.004,0.01,0.005,0.014,0.009  c0.005,0.004,0.006,0.01,0.011,0.014c1.525,1.274,0.889,2.734,0.807,2.905c-0.245,0.489-0.05,1.087,0.438,1.337  c0.146,0.075,0.302,0.11,0.455,0.11c0.363,0,0.714-0.198,0.891-0.544c0.527-1.029,0.933-3.471-1.308-5.344  c-0.011-0.009-0.024-0.01-0.035-0.019c-1.942-1.682-4.82-1.308-7.387-0.716c-1.116,0.255-2.152-0.755-3.732-2.457  c-0.402-0.433-0.813-0.867-1.243-1.291c-1.278-1.262-1.219-2.584-1.136-4.438c0.025-0.584,0.052-1.148,0.035-1.763  C35.521,23.699,33.705,23,32.755,23c-0.003,0-0.006,0-0.009,0c-0.549,0-0.995,0.374-1,0.923c-0.005,0.553,0.439,0.936,0.991,0.94  c0.008,0,0.817,0.025,0.86,1.635c0.016,0.565-0.01,1.116-0.033,1.653c-0.058,1.293-0.108,2.613,0.369,3.894  c-0.005,0.025-0.008,0.038-0.013,0.064c-0.3,1.601-0.747,2.666-1.951,2.666c-0.357,0-0.778-0.122-1.224-0.252  c-0.922-0.27-2.066-0.603-3.329-0.034c-0.519,0.232-0.899,0.647-1.101,1.199c-0.565,1.556,0.496,3.886,0.714,4.337  c0.173,0.356,0.529,0.564,0.9,0.564c0.146,0,0.294-0.032,0.435-0.1c0.497-0.24,0.705-0.838,0.466-1.335  c-0.59-1.225-0.832-2.605-0.595-2.842c0.563-0.252,1.108-0.115,1.95,0.13c0.561,0.163,1.141,0.332,1.783,0.332  c1.981,0,2.945-1.312,3.436-2.54c0.367,0.368,0.725,0.748,1.07,1.12c0.374,0.403,0.752,0.806,1.139,1.186  c0.044,0.527,0.019,1.375-0.081,1.611c-0.273,0.162-1.439-0.074-1.997-0.188c-0.948-0.194-1.77-0.362-2.438-0.14  c-0.985,0.325-1.344,1.481-1.632,2.41c-0.069,0.221-0.163,0.523-0.212,0.612c-0.021,0.037-0.023,0.078-0.038,0.116  c-0.016,0.038-0.044,0.067-0.055,0.108c-0.013,0.045-0.012,0.085-0.023,0.13c-0.002,0.013-0.005,0.025-0.007,0.038  c-0.471,1.953,0.586,3.334,0.937,3.721c-0.065,0.022-0.124,0.041-0.192,0.064c-1.139,0.386-3.045,1.031-3.947,0.438  c-1.195-0.781-2.099-0.737-2.893-0.693c-0.505,0.027-0.944,0.049-1.533-0.14c-0.813-0.259-1.306-1.231-1.987-3.215  c0.052-0.314,0.179-0.66,0.277-0.72c0,0.001,0.091-0.014,0.313,0.087c0.504,0.231,1.097,0.011,1.326-0.49  c0.231-0.502,0.012-1.096-0.49-1.326c-1.004-0.463-1.731-0.251-2.165,0.009c-0.018,0.011-0.031,0.026-0.048,0.037l-0.279-0.863  c-0.146-0.446-0.25-0.867-0.33-1.271C20.631,37.508,21.492,38,22.466,38c0.018,0,0.034,0,0.051,0c1.039,0,1.937-0.573,2.462-1.31  c0.316-0.443,0.549-1.177,0.795-1.818c0.711-1.849,1.147-2.589,2.009-2.385c0.54,0.124,1.075-0.202,1.2-0.741  c0.124-0.538-0.211-1.059-0.749-1.184c-2.701-0.621-3.717,2.067-4.327,3.654c-0.19,0.495-0.387,1.073-0.556,1.309  C23.203,35.732,22.874,36,22.49,36c-0.007,0-0.015,0-0.022,0c-0.426,0-0.734-0.284-0.818-0.395  c-0.593-0.789-1.219-1.079-1.678-1.103c0.094-1.206,0.43-2.161,0.737-2.919c0.288,0.315,0.673,0.558,1.204,0.558  c0.118,0,0.242-0.011,0.373-0.036c1.588-0.302,1.777-1.698,1.915-2.719c0.111-0.82,0.227-1.668,0.833-2.448  c1.344-1.727,2.393-1.69,3.352-1.506c0.705,0.139,1.146-0.164,1.344-0.357c0.664-0.646,0.497-1.656,0.32-2.727  c-0.066-0.404-0.149-0.908-0.122-1.122c0.138-1.077,1.655-2.551,2.328-2.788c0.916,1.621,2.052,1.769,2.277,1.781l0.197-0.005  c4.651-0.197,5.319,0.481,5.412,0.695c0.374,0.863,0.885,1.264,1.295,1.589c0.486,0.387,0.871,0.683,1.214,2.045  c0.434,1.726,0.107,2.327-0.003,2.475c-0.043,0.057-0.156,0.175-0.497,0.189c-0.552,0.024-0.979,0.422-0.955,0.974  C41.219,28.719,41.661,29,42.193,29c0.015,0,0.03,0,0.045,0c0.832,0,1.546-0.264,2.013-0.889c0.688-0.925,0.803-2.193,0.339-4.039  c-0.47-1.867-1.144-2.523-1.91-3.132c-0.329-0.262-0.527-0.419-0.702-0.822c-0.823-1.899-3.987-2.04-7.287-1.902  c-0.107-0.048-0.426-0.236-0.765-0.894c-0.36-0.699-1.07-1.03-1.888-0.885c-1.68,0.296-3.861,2.712-4.096,4.534  c-0.064,0.504,0.031,1.086,0.133,1.701c0.033,0.199,0.078,0.469,0.105,0.706c-1.351-0.142-3.022,0.14-4.726,2.33  c-0.938,1.206-1.11,2.479-1.236,3.408c-0.037,0.272-0.088,0.65-0.193,0.871c-0.053-0.123-0.104-0.267-0.139-0.363  c-0.062-0.173-0.141-0.386-0.25-0.591c0.486-1.341,1.02-2.625,1.392-3.174c0.37-0.545,0.942-1.636,1.549-2.79  c0.497-0.946,1.011-1.924,1.265-2.305c1.069-1.6,3.18-4.309,3.762-4.627l0.375-0.345c0.887-1.387,3.858-2.638,5.708-3.167  c0.532-0.013,1.755,0.086,2.427,0.637c-0.114,0.152-0.298,0.351-0.422,0.486c-0.5,0.543-1.122,1.219-1.031,2.086  c0.036,0.342,0.203,0.838,0.794,1.257c1.139,0.81,2.591,0.229,3.37-0.083c0.734-0.292,1.761-0.266,2.413,0.445  c0.313,0.342,0.671,0.602,1.063,0.772c1.527,0.667,1.571,1.473,1.169,2.478c-0.311,0.774-0.144,1.33,0.051,1.659  c0.516,0.872,1.659,1.012,2.766,1.146c0.645,0.078,1.446,0.176,1.788,0.407c1.085,0.732,2.398,4,1.733,5.802  c-0.706,1.909-0.503,2.885-0.147,3.393c-0.554-0.341-1.079-0.749-1.528-1.175c-0.807-0.767-1.511-1.102-2.183-1.26  c1.435-2.047,0.837-3.572,0.746-3.775c-0.221-0.488-0.777-0.692-1.274-0.497c-0.497,0.199-0.741,0.775-0.564,1.281  c0.017,0.048,0.369,1.158-1.441,2.852c-0.472,0.073-0.995,0.256-1.569,0.467c-0.988,0.362-2.218,0.808-2.923,0.478  c-0.318-0.15-0.563-0.481-0.751-1.014c-0.558-1.585-0.605-3.036-0.644-4.202c-0.046-1.396-0.098-2.98-1.616-3.265  c-0.549-0.103-1.065,0.256-1.167,0.798c-0.094,0.499,0.201,0.981,0.671,1.135c0.076,0.267,0.098,0.912,0.113,1.398  c0.041,1.233,0.096,2.924,0.756,4.8c0.369,1.048,0.97,1.773,1.785,2.158c1.466,0.69,3.128,0.082,4.464-0.408  c0.423-0.155,1.068-0.392,1.26-0.381c0.207,0.01,0.401,0.016,0.587,0.021c1.034,0.027,1.506,0.04,2.373,0.864  c2.299,2.182,4.896,3.052,6.947,2.316c0.695-0.247,1.269-0.259,1.916-0.051l0.035,0.01c0.003,0.001,0.008,0.001,0.012,0.002  c0.662,0.223,1.406,0.677,2.435,1.353c1.777,1.169,2.418,3.033,2.517,3.949C62.629,41.094,62.587,41.172,62.336,41.498z"></path><path d="M53.526,19.652c-0.01-0.451-0.325-0.854-0.785-0.955c-0.537-0.117-1.073,0.223-1.191,0.762  c-0.085,0.386-0.156,1.734,2.474,2.88c1.664,0.726,1.664,0.728,1.647,2.841c-0.022,2.778,2.366,3.029,4.285,3.226  c1.969,0.203,4.201,0.443,5.686,2.613c0.595,0.871,1.488,1.137,2.14,1.316c0.223,0.062,0.56,0.195,0.623,0.251  c0,0,0.018,0.126,0.018,0.241C68.42,33.379,68.865,34,69.418,34c0.001,0,0.003,0,0.004,0c0.551,0,0.998-0.614,1-1.165  c0.007-1.721-1.371-2.268-2.111-2.471c-0.519-0.143-0.846-0.242-1.019-0.495c-2.007-2.936-4.969-3.24-7.132-3.463  c-2.282-0.234-2.496-0.426-2.489-1.216c0.023-3.017-0.322-3.586-2.849-4.687C53.869,20.088,53.593,19.754,53.526,19.652z"></path><path d="M53.767,40.917c-0.358-0.419-0.99-0.468-1.41-0.109c-0.419,0.358-0.469,0.99-0.109,1.41  c0.432,0.505,0.865,1.184,0.963,1.495c-0.237,0.516-0.072,0.902,0.059,1.098c0.392,0.588,1.045,0.482,1.357,0.429  c0.455-0.075,0.703-0.078,0.884,0.097c0.194,0.188,0.444,0.281,0.695,0.281c0.262,0,0.522-0.102,0.719-0.305  c0.384-0.396,0.373-1.03-0.023-1.414c-0.57-0.552-1.226-0.696-1.764-0.706C54.919,42.408,54.335,41.582,53.767,40.917z"></path></svg>