<svg xmlns="http://www.w3.org/2000/svg" xmlns:xlink="http://www.w3.org/1999/xlink" version="1.1" x="0px" y="0px" viewBox="0 0 512 512" enable-background="new 0 0 512 512" xml:space="preserve"><g><path d="M495.9,36.3h-65.3V16.1c0-7.8-6.3-14.1-14.1-14.1c-7.8,0-14.1,6.3-14.1,14.1v20.2H109.6V16.1c0-7.8-6.3-14.1-14.1-14.1   S81.4,8.3,81.4,16.1v20.2H16.1C8.3,36.3,2,42.6,2,50.4v355.9c0,4.1,1.8,8,4.9,10.7l103.6,89.5c2.6,2.2,5.8,3.4,9.2,3.4h376.1   c7.8,0,14.1-6.3,14.1-14.1V50.4C510,42.6,503.7,36.3,495.9,36.3z M105.6,465.1L54,420.5h51.6V465.1z M481.8,481.8H133.9v-75.4   c0-7.8-6.3-14.1-14.1-14.1H30.2V152.1h451.6V481.8z M481.8,123.9H30.2V64.5h51.2v20.2c0,7.8,6.3,14.1,14.1,14.1s14.1-6.3,14.1-14.1   V64.5h292.7v20.2c0,7.8,6.3,14.1,14.1,14.1c7.8,0,14.1-6.3,14.1-14.1V64.5h51.2V123.9z"></path><path d="M89.9,221.4H103c7.8,0,14.1-6.3,14.1-14.1s-6.3-14.1-14.1-14.1H89.9c-7.8,0-14.1,6.3-14.1,14.1S82.1,221.4,89.9,221.4z"></path><path d="M169.7,221.4h13.2c7.8,0,14.1-6.3,14.1-14.1s-6.3-14.1-14.1-14.1h-13.2c-7.8,0-14.1,6.3-14.1,14.1S161.9,221.4,169.7,221.4   z"></path><path d="M249.4,221.4h13.2c7.8,0,14.1-6.3,14.1-14.1s-6.3-14.1-14.1-14.1h-13.2c-7.8,0-14.1,6.3-14.1,14.1S241.6,221.4,249.4,221.4   z"></path><path d="M329.2,221.4h13.2c7.8,0,14.1-6.3,14.1-14.1s-6.3-14.1-14.1-14.1h-13.2c-7.8,0-14.1,6.3-14.1,14.1S321.4,221.4,329.2,221.4   z"></path><path d="M409,221.4h13.2c7.8,0,14.1-6.3,14.1-14.1s-6.3-14.1-14.1-14.1H409c-7.8,0-14.1,6.3-14.1,14.1S401.2,221.4,409,221.4z"></path><path d="M89.9,294.5H103c7.8,0,14.1-6.3,14.1-14.1c0-7.8-6.3-14.1-14.1-14.1H89.9c-7.8,0-14.1,6.3-14.1,14.1   C75.8,288.2,82.1,294.5,89.9,294.5z"></path><path d="M169.7,294.5h13.2c7.8,0,14.1-6.3,14.1-14.1c0-7.8-6.3-14.1-14.1-14.1h-13.2c-7.8,0-14.1,6.3-14.1,14.1   C155.5,288.2,161.9,294.5,169.7,294.5z"></path><path d="M249.4,294.5h13.2c7.8,0,14.1-6.3,14.1-14.1c0-7.8-6.3-14.1-14.1-14.1h-13.2c-7.8,0-14.1,6.3-14.1,14.1   C235.3,288.2,241.6,294.5,249.4,294.5z"></path><path d="M329.2,294.5h13.2c7.8,0,14.1-6.3,14.1-14.1c0-7.8-6.3-14.1-14.1-14.1h-13.2c-7.8,0-14.1,6.3-14.1,14.1   C315.1,288.2,321.4,294.5,329.2,294.5z"></path><path d="M409,294.5h13.2c7.8,0,14.1-6.3,14.1-14.1c0-7.8-6.3-14.1-14.1-14.1H409c-7.8,0-14.1,6.3-14.1,14.1   C394.8,288.2,401.2,294.5,409,294.5z"></path><path d="M89.9,367.6H103c7.8,0,14.1-6.3,14.1-14.1c0-7.8-6.3-14.1-14.1-14.1H89.9c-7.8,0-14.1,6.3-14.1,14.1   C75.8,361.3,82.1,367.6,89.9,367.6z"></path><path d="M169.7,367.6h13.2c7.8,0,14.1-6.3,14.1-14.1c0-7.8-6.3-14.1-14.1-14.1h-13.2c-7.8,0-14.1,6.3-14.1,14.1   C155.5,361.3,161.9,367.6,169.7,367.6z"></path><path d="M249.4,367.6h13.2c7.8,0,14.1-6.3,14.1-14.1c0-7.8-6.3-14.1-14.1-14.1h-13.2c-7.8,0-14.1,6.3-14.1,14.1   C235.3,361.3,241.6,367.6,249.4,367.6z"></path><path d="M329.2,367.6h13.2c7.8,0,14.1-6.3,14.1-14.1c0-7.8-6.3-14.1-14.1-14.1h-13.2c-7.8,0-14.1,6.3-14.1,14.1   C315.1,361.3,321.4,367.6,329.2,367.6z"></path><path d="M409,367.6h13.2c7.8,0,14.1-6.3,14.1-14.1c0-7.8-6.3-14.1-14.1-14.1H409c-7.8,0-14.1,6.3-14.1,14.1   C394.8,361.3,401.2,367.6,409,367.6z"></path><path d="M169.7,440.8h13.2c7.8,0,14.1-6.3,14.1-14.1c0-7.8-6.3-14.1-14.1-14.1h-13.2c-7.8,0-14.1,6.3-14.1,14.1   C155.5,434.4,161.9,440.8,169.7,440.8z"></path><path d="M249.4,440.8h13.2c7.8,0,14.1-6.3,14.1-14.1c0-7.8-6.3-14.1-14.1-14.1h-13.2c-7.8,0-14.1,6.3-14.1,14.1   C235.3,434.4,241.6,440.8,249.4,440.8z"></path><path d="M329.2,440.8h13.2c7.8,0,14.1-6.3,14.1-14.1c0-7.8-6.3-14.1-14.1-14.1h-13.2c-7.8,0-14.1,6.3-14.1,14.1   C315.1,434.4,321.4,440.8,329.2,440.8z"></path><path d="M409,440.8h13.2c7.8,0,14.1-6.3,14.1-14.1c0-7.8-6.3-14.1-14.1-14.1H409c-7.8,0-14.1,6.3-14.1,14.1   C394.8,434.4,401.2,440.8,409,440.8z"></path></g></svg>