<svg id="Layer_1" data-name="Layer 1" xmlns="http://www.w3.org/2000/svg" width="741.45" height="473.36" viewBox="0 0 741.45 473.36">
  <title>Seattle-Scrum-Company-corner</title>
  <g>
    <g>
      <path d="M129.83,612.67c-.89-.38-1-.66-1-1.87,0-3,.22-6.34.27-7.22s.22-1.43.66-1.43.55.5.55.94a11.39,11.39,0,0,0,.5,2.81c1.21,4.08,4.46,5.57,7.88,5.57,5,0,7.39-3.36,7.39-6.28,0-2.7-.82-5.24-5.4-8.82l-2.54-2c-6.06-4.74-8.16-8.6-8.16-13.06,0-6.07,5.07-10.42,12.73-10.42a26.7,26.7,0,0,1,7.34.94c.49.11.77.28.77.66,0,.71-.22,2.31-.22,6.61,0,1.21-.17,1.65-.61,1.65s-.55-.33-.55-1a6.67,6.67,0,0,0-1.43-3.64,7,7,0,0,0-6-2.7c-4.08,0-6.56,2.37-6.56,5.68,0,2.54,1.27,4.47,5.84,7.94l1.54,1.16c6.67,5,9,8.82,9,14.06a11.11,11.11,0,0,1-5.18,9.59,15.93,15.93,0,0,1-8.77,2.26A19.06,19.06,0,0,1,129.83,612.67Z" transform="translate(-128.78 -140.74)" fill="#9e0202"/>
      <path d="M162.73,591.45c0-7.11,0-8.43-.05-9.92s-.56-2.1-2.1-2.54a9,9,0,0,0-1.93-.17c-.49,0-.82-.17-.82-.5s.39-.44,1.1-.44c2.53,0,5.63.11,7,.11,1.54,0,12.29.06,13.23,0a19.67,19.67,0,0,0,2-.28,5.46,5.46,0,0,1,.77-.22c.27,0,.33.22.33.44a20.64,20.64,0,0,0-.38,3c-.06.5-.17,2.54-.27,3.09-.06.22-.17.77-.56.77s-.39-.22-.39-.61a4.32,4.32,0,0,0-.33-1.71c-.38-.83-.77-1.49-3.2-1.71-.82-.11-6.61-.22-7.61-.22-.22,0-.33.17-.33.44V592.6c0,.28.06.5.33.5,1.1,0,7.39,0,8.49-.11s1.87-.22,2.31-.72c.39-.33.56-.61.77-.61a.45.45,0,0,1,.39.5c0,.27-.11,1-.39,3.42-.11.94-.22,2.81-.22,3.14s-.06,1-.5,1-.44-.17-.44-.39c-.06-.5-.06-1.1-.17-1.71-.27-.94-.88-1.65-2.7-1.82-.89-.11-6.39-.22-7.61-.22-.22,0-.27.22-.27.5v3.75c0,1.6-.06,5.57,0,6.95.11,3.2,1.6,3.91,6.56,3.91a13.11,13.11,0,0,0,4.57-.61c1.22-.55,1.77-1.54,2.1-3.47.11-.5.22-.72.55-.72s.44.61.44,1.1a31.67,31.67,0,0,1-.66,5.18c-.33,1.21-.77,1.21-2.59,1.21-3.64,0-6.56-.05-8.93-.16s-4.19-.11-5.62-.11c-.55,0-1.6.06-2.75.06s-2.37.11-3.37.11c-.6,0-.94-.17-.94-.5s.17-.5.77-.5a7.11,7.11,0,0,0,1.71-.16c1-.22,1.27-1.1,1.43-2.48.22-2,.22-5.68.22-10Z" transform="translate(-128.78 -140.74)" fill="#9e0202"/>
      <path d="M196.59,601.54c-.27,0-.33.05-.44.33l-2.59,6.28a8.54,8.54,0,0,0-.71,2.87c0,.83.44,1.32,1.93,1.32h.71c.61,0,.72.22.72.5s-.27.5-.77.5c-1.6,0-3.86-.17-5.41-.17-.49,0-3.09.17-5.62.17-.61,0-.88-.11-.88-.5a.48.48,0,0,1,.55-.5c.44,0,1-.05,1.44-.05,2.2-.33,3-1.77,4-4.14l12.68-29.49c.55-1.32.94-1.87,1.44-1.87.72,0,.94.44,1.43,1.49,1.16,2.59,9.27,21.77,12.35,28.88,1.87,4.25,3.25,4.85,4.13,5a11.57,11.57,0,0,0,1.82.16c.44,0,.66.17.66.5s-.27.5-2.09.5-5.24,0-9.32-.11c-.88-.06-1.44-.06-1.44-.39s.11-.44.61-.5a.74.74,0,0,0,.44-1l-3.75-9.43a.46.46,0,0,0-.5-.33ZM207,598.95c.22,0,.27-.11.22-.28l-4.58-11.91c-.06-.17-.11-.44-.22-.44s-.22.28-.27.44l-4.69,11.85c-.11.22,0,.33.17.33Z" transform="translate(-128.78 -140.74)" fill="#9e0202"/>
      <path d="M232.21,580.75l-7.22.17c-2.81.06-4,.39-4.68,1.43a5.47,5.47,0,0,0-.83,1.6c-.11.39-.22.61-.55.61s-.44-.28-.44-.77c0-.77.94-5.29,1-5.68.11-.61.28-.88.56-.88s.88.39,2.09.55A45.7,45.7,0,0,0,227,578h19.68a21.53,21.53,0,0,0,3.3-.22c.77-.11,1.16-.22,1.32-.22.33,0,.39.27.39,1,0,1-.11,4.46-.11,5.68-.05.5-.16.77-.44.77s-.5-.22-.55-.94l-.05-.5c-.11-1.22-1.38-2.65-5.73-2.7l-6.12-.11v19c0,4.3,0,8,.27,10,.16,1.32.44,2.21,1.87,2.43a18,18,0,0,0,2.48.16c.55,0,.77.28.77.5s-.39.5-.94.5c-3.2,0-6.45-.17-7.83-.17-1.1,0-4.41.17-6.34.17-.61,0-.94-.17-.94-.5s.16-.5.77-.5a6.8,6.8,0,0,0,1.71-.16c1-.22,1.27-1.1,1.44-2.48.22-2,.22-5.68.22-10Z" transform="translate(-128.78 -140.74)" fill="#9e0202"/>
      <path d="M267.11,580.75l-7.22.17c-2.81.06-4,.39-4.68,1.43a5.44,5.44,0,0,0-.83,1.6c-.11.39-.22.61-.55.61s-.44-.28-.44-.77c0-.77.94-5.29,1-5.68.11-.61.28-.88.56-.88s.88.39,2.09.55a45.7,45.7,0,0,0,4.85.22h19.68a21.56,21.56,0,0,0,3.3-.22c.77-.11,1.16-.22,1.32-.22.33,0,.39.27.39,1,0,1-.11,4.46-.11,5.68-.05.5-.16.77-.44.77s-.5-.22-.56-.94l0-.5c-.11-1.22-1.38-2.65-5.73-2.7l-6.12-.11v19c0,4.3.05,8,.28,10,.16,1.32.44,2.21,1.87,2.43a18,18,0,0,0,2.48.16c.55,0,.77.28.77.5s-.39.5-.94.5c-3.2,0-6.45-.17-7.83-.17-1.1,0-4.41.17-6.34.17-.61,0-.94-.17-.94-.5s.16-.5.77-.5a6.81,6.81,0,0,0,1.71-.16c1-.22,1.27-1.1,1.44-2.48.22-2,.22-5.68.22-10Z" transform="translate(-128.78 -140.74)" fill="#9e0202"/>
      <path d="M302.06,599.72c0,6,0,9,1,9.87.83.72,2.7,1,6.45,1,2.59,0,4.47-.06,5.68-1.32a5.66,5.66,0,0,0,1.21-2.81c.06-.44.16-.72.55-.72s.44.5.44,1a35.58,35.58,0,0,1-.72,5.4c-.33,1-.55,1.27-3.08,1.27-3.48,0-6.29-.05-8.71-.16s-4.46-.11-6.45-.11c-.55,0-1.6.06-2.76.06s-2.37.11-3.36.11c-.61,0-.94-.17-.94-.5s.16-.5.77-.5a7.08,7.08,0,0,0,1.71-.16c1-.22,1.27-1.1,1.44-2.48.22-2,.22-5.68.22-10v-8.27c0-7.11,0-8.43-.06-9.92s-.55-2.1-2.09-2.54a6.51,6.51,0,0,0-1.6-.17c-.56,0-.83-.17-.83-.5s.33-.44,1-.44c2.26,0,5.35.11,6.67.11,1.16,0,5.13-.11,7-.11.72,0,1,.11,1,.44s-.27.5-.88.5A10.84,10.84,0,0,0,304,579c-1.32.22-1.71.88-1.82,2.54-.11,1.49-.11,2.81-.11,9.92Z" transform="translate(-128.78 -140.74)" fill="#9e0202"/>
      <path d="M326,591.45c0-7.11,0-8.43-.06-9.92s-.55-2.1-2.09-2.54a9,9,0,0,0-1.93-.17c-.5,0-.83-.17-.83-.5s.39-.44,1.11-.44c2.53,0,5.62.11,7,.11,1.54,0,12.3.06,13.23,0a19.51,19.51,0,0,0,2-.28,6,6,0,0,1,.77-.22c.27,0,.33.22.33.44a21.06,21.06,0,0,0-.39,3c-.06.5-.16,2.54-.27,3.09-.06.22-.16.77-.55.77s-.39-.22-.39-.61a4.43,4.43,0,0,0-.33-1.71c-.39-.83-.77-1.49-3.2-1.71-.82-.11-6.61-.22-7.6-.22-.23,0-.33.17-.33.44V592.6c0,.28.06.5.33.5,1.1,0,7.39,0,8.49-.11s1.87-.22,2.32-.72c.39-.33.55-.61.77-.61s.38.22.38.5-.11,1-.38,3.42c-.11.94-.22,2.81-.22,3.14s-.06,1-.49,1-.44-.17-.44-.39c-.06-.5-.06-1.1-.16-1.71-.27-.94-.89-1.65-2.7-1.82-.88-.11-6.39-.22-7.61-.22-.22,0-.28.22-.28.5v3.75c0,1.6-.06,5.57,0,6.95.11,3.2,1.6,3.91,6.56,3.91a13.14,13.14,0,0,0,4.58-.61c1.21-.55,1.76-1.54,2.09-3.47.11-.5.22-.72.56-.72s.44.61.44,1.1a31.09,31.09,0,0,1-.66,5.18c-.33,1.21-.77,1.21-2.59,1.21-3.64,0-6.56-.05-8.93-.16s-4.19-.11-5.62-.11c-.55,0-1.6.06-2.76.06s-2.37.11-3.36.11c-.61,0-.94-.17-.94-.5s.16-.5.77-.5a7.08,7.08,0,0,0,1.71-.16c1-.22,1.27-1.1,1.44-2.48.22-2,.22-5.68.22-10Z" transform="translate(-128.78 -140.74)" fill="#9e0202"/>
      <path d="M372.36,612.67c-.89-.38-1-.66-1-1.87,0-3,.22-6.34.27-7.22s.22-1.43.66-1.43.55.5.55.94a11.4,11.4,0,0,0,.5,2.81c1.21,4.08,4.47,5.57,7.88,5.57,5,0,7.39-3.36,7.39-6.28,0-2.7-.82-5.24-5.4-8.82l-2.53-2c-6.06-4.74-8.16-8.6-8.16-13.06,0-6.07,5.07-10.42,12.73-10.42a26.7,26.7,0,0,1,7.34.94c.49.11.77.28.77.66,0,.71-.22,2.31-.22,6.61,0,1.21-.17,1.65-.61,1.65s-.56-.33-.56-1a6.67,6.67,0,0,0-1.43-3.64,7,7,0,0,0-6-2.7c-4.08,0-6.56,2.37-6.56,5.68,0,2.54,1.27,4.47,5.84,7.94l1.54,1.16c6.67,5,9,8.82,9,14.06a11.1,11.1,0,0,1-5.18,9.59,15.93,15.93,0,0,1-8.77,2.26A19.06,19.06,0,0,1,372.36,612.67Z" transform="translate(-128.78 -140.74)" fill="#9e0202"/>
      <path d="M407.15,608.87a18.09,18.09,0,0,1-.39-26.68c3.53-3.09,8.16-5,15.38-5a49.93,49.93,0,0,1,7.06.5c1.82.28,3.42.61,4.85.77.55.06.72.27.72.55s-.11.94-.22,2.59-.11,4.13-.17,5.07c-.06.66-.22,1.16-.66,1.16s-.49-.39-.49-1a6.61,6.61,0,0,0-1.87-4.36c-1.65-1.6-4.91-2.76-9.37-2.76-4.25,0-6.94.77-9.15,2.65-3.58,3.09-4.47,7.6-4.47,12.18,0,11.13,8.6,16.43,15.11,16.43,4.3,0,6.67-.33,8.6-2.48a7.52,7.52,0,0,0,1.65-3.14c.11-.72.22-.94.61-.94s.56.44.56.83a42,42,0,0,1-1,6.23,1.65,1.65,0,0,1-1.27,1.38c-1.93.77-5.63,1-8.77,1C417.18,613.94,411.56,612.56,407.15,608.87Z" transform="translate(-128.78 -140.74)" fill="#9e0202"/>
      <path d="M445.25,591.45c0-7.11,0-8.43-.06-9.92s-.55-2.1-2.09-2.54a9,9,0,0,0-1.93-.17c-.5,0-.83-.17-.83-.5s.39-.44,1.1-.44c2.53,0,5.62.11,6.61.11,1.65,0,6.06-.11,7.56-.11,3.08,0,6.61.27,9.2,2a8.18,8.18,0,0,1,3.42,6.45c0,3.47-2,6.56-6.73,10.37,4.3,5.29,7.72,9.54,10.64,12.46,2.7,2.7,4.41,2.92,5.18,3.09a4.6,4.6,0,0,0,1.16.11.56.56,0,0,1,.61.5c0,.39-.33.5-.94.5h-4.63c-2.7,0-4-.28-5.29-.94-2.09-1-3.91-3.25-6.61-6.89-1.93-2.54-4-5.68-4.58-6.39a1.11,1.11,0,0,0-.88-.33l-4.35-.11a.35.35,0,0,0-.39.39v.66c0,4.35.06,8,.27,10,.16,1.38.39,2.26,1.87,2.48a18.24,18.24,0,0,0,2.37.16.57.57,0,0,1,.61.5c0,.33-.39.5-1,.5-2.81,0-6.84-.17-7.55-.17-.94,0-4,.17-6,.17-.61,0-.94-.17-.94-.5s.16-.5.77-.5a7.08,7.08,0,0,0,1.71-.16c1-.22,1.27-1.1,1.44-2.48.22-2,.22-5.68.22-10Zm6.18,3.64c0,.5.11.66.44.83a13.29,13.29,0,0,0,3.7.44c1.93,0,2.59-.17,3.42-.77,1.49-1,3.14-3.09,3.14-6.95,0-6.62-4.52-8.32-7.39-8.32a17.56,17.56,0,0,0-2.87.17c-.33.11-.44.27-.44.66Z" transform="translate(-128.78 -140.74)" fill="#9e0202"/>
      <path d="M480.7,591.45c0-7.11.05-8.43-.06-9.92-.11-1.65-.56-2.1-2.1-2.54a8.77,8.77,0,0,0-1.87-.17q-.82,0-.82-.5c0-.33.33-.44,1-.44,2.59,0,5.84.11,7.28.11,1.21,0,4.47-.11,6.23-.11.72,0,1,.11,1,.44s-.27.5-.77.5a6.78,6.78,0,0,0-1.43.17c-1.27.22-1.65.88-1.77,2.54-.11,1.49-.11,2.81-.11,9.92V598c0,6.83,1.32,9.48,3.69,11.35a9.34,9.34,0,0,0,6.12,1.87,9.25,9.25,0,0,0,6.51-2.48c2.7-2.54,2.81-6.62,2.81-11.41v-5.9c0-7.11-.06-8.43-.11-9.92s-.49-2.1-2-2.54a8.42,8.42,0,0,0-1.77-.17q-.83,0-.83-.5c0-.33.33-.44,1-.44,2.48,0,5.73.11,5.79.11.55,0,3.8-.11,5.68-.11.66,0,1,.11,1,.44s-.27.5-.82.5a6.77,6.77,0,0,0-1.44.17c-1.32.22-1.65.88-1.77,2.54-.05,1.49-.11,2.81-.11,9.92v5c0,5.24-.55,10.75-4.63,14.11a15.12,15.12,0,0,1-10.25,3.36c-2.53,0-7.55-.11-11.08-3.2-2.48-2.15-4.41-5.62-4.41-12.4Z" transform="translate(-128.78 -140.74)" fill="#9e0202"/>
      <path d="M525.64,578.05c.11-.77.55-1.21.94-1.21s.82.22,1.49,1.49l13,26.13,13-26.46c.39-.77.83-1.16,1.27-1.16s.94.49,1.11,1.49l4.41,28.94c.44,2.92.88,4.19,2.37,4.63a9.52,9.52,0,0,0,2.75.44c.44,0,.77.17.77.44s-.56.55-1.27.55c-1.22,0-8.11-.22-10-.33-1.16-.06-1.44-.27-1.44-.55s.22-.38.55-.49.38-.66.22-2l-2.7-20.29h-.16l-10.42,20.95c-1.1,2.2-1.37,2.65-1.93,2.65s-1.15-.94-1.93-2.37c-1.16-2.15-5-9.32-5.56-10.64-.39-.88-3.25-6.78-4.85-10h-.17l-2.31,18.3a15.26,15.26,0,0,0-.17,2.2c0,.88.66,1.21,1.49,1.38a8.39,8.39,0,0,0,1.71.22c.44,0,.78.22.78.44,0,.44-.44.55-1.16.55-2,0-4.24-.17-5.13-.17s-3.25.17-4.79.17c-.49,0-.88-.11-.88-.55,0-.22.28-.44.77-.44a9,9,0,0,0,1.49-.11c1.32-.17,1.76-2,2-3.58Z" transform="translate(-128.78 -140.74)" fill="#9e0202"/>
      <path d="M593.17,608.1c-5.4-4.74-6.84-10.92-6.84-16.26a20.75,20.75,0,0,1,6.45-15.11c4-3.64,9.2-5.84,17.42-5.84a54.46,54.46,0,0,1,8,.55c2.09.27,3.86.77,5.51.94.61.06.83.33.83.66s-.16,1.1-.28,3-.06,4.85-.16,6c-.06.83-.17,1.27-.66,1.27s-.56-.44-.56-1.21a7.83,7.83,0,0,0-2.15-5.07c-1.82-1.93-6.12-3.42-11.19-3.42-4.8,0-7.94,1.21-10.37,3.42-4,3.69-5.07,8.93-5.07,14.28,0,13.12,10,19.63,17.37,19.63,4.91,0,7.88-.55,10.08-3.09a9.16,9.16,0,0,0,1.88-3.64c.16-.88.27-1.1.71-1.1s.5.38.5.83a52.53,52.53,0,0,1-1.21,7.33,2,2,0,0,1-1.44,1.6c-2.2.88-6.39,1.27-9.92,1.27C604.53,614.1,598.19,612.45,593.17,608.1Z" transform="translate(-128.78 -140.74)" fill="#9e0202"/>
      <path d="M630.06,595.58c0-8,5.62-18.36,20.34-18.36,12.23,0,19.85,6.78,19.85,17.53s-7.83,19.18-20.35,19.18C635.79,613.94,630.06,603.91,630.06,595.58Zm33,.88c0-10.36-6.23-16.76-14.06-16.76-5.4,0-11.74,2.87-11.74,14.44,0,9.64,5.51,17.25,14.66,17.25C655.31,611.4,663,609.81,663,596.46Z" transform="translate(-128.78 -140.74)" fill="#9e0202"/>
      <path d="M682.49,578.05c.11-.77.55-1.21.94-1.21s.82.22,1.49,1.49l13,26.13,13-26.46c.39-.77.83-1.16,1.27-1.16s.94.49,1.11,1.49l4.41,28.94c.44,2.92.88,4.19,2.37,4.63a9.51,9.51,0,0,0,2.75.44c.44,0,.77.17.77.44s-.55.55-1.27.55c-1.22,0-8.11-.22-10-.33-1.16-.06-1.44-.27-1.44-.55s.22-.38.56-.49.38-.66.22-2L709,589.68h-.16l-10.42,20.95c-1.1,2.2-1.37,2.65-1.93,2.65s-1.16-.94-1.93-2.37c-1.16-2.15-5-9.32-5.56-10.64-.39-.88-3.25-6.78-4.85-10h-.17l-2.31,18.3a15.12,15.12,0,0,0-.17,2.2c0,.88.66,1.21,1.49,1.38a8.4,8.4,0,0,0,1.71.22c.44,0,.77.22.77.44,0,.44-.44.55-1.16.55-2,0-4.24-.17-5.13-.17s-3.25.17-4.8.17c-.49,0-.88-.11-.88-.55,0-.22.28-.44.78-.44a9,9,0,0,0,1.49-.11c1.32-.17,1.76-2,2-3.58Z" transform="translate(-128.78 -140.74)" fill="#9e0202"/>
      <path d="M731.56,591.45c0-7.11,0-8.43-.05-9.92s-.55-2.1-2.1-2.54a9,9,0,0,0-1.93-.17c-.49,0-.82-.17-.82-.5s.39-.44,1.1-.44c2.54,0,5.63.11,7,.11,2,0,5.84-.11,8-.11,6.07,0,8.27,2,9,2.65a8.12,8.12,0,0,1,2.43,5.62c0,6.62-5.29,11.36-12.18,11.36a12.12,12.12,0,0,1-1.44-.06.55.55,0,0,1-.61-.5c0-.39.55-.61,1.6-.61,2.7,0,6.51-2.81,6.51-7.61a8.74,8.74,0,0,0-2.87-6.94,7.3,7.3,0,0,0-4.85-1.76,7.63,7.63,0,0,0-2.1.22c-.27.11-.38.39-.38.88v18.58c0,4.3,0,8,.22,10,.16,1.32.44,2.21,1.87,2.43a18.59,18.59,0,0,0,2.48.16c.55,0,.77.28.77.5s-.39.5-.88.5c-3.25,0-6.67-.17-7.94-.17-1.1,0-4.19.17-6.12.17-.61,0-.94-.17-.94-.5s.17-.5.77-.5a7.11,7.11,0,0,0,1.71-.16c1-.22,1.27-1.1,1.43-2.48.22-2,.22-5.68.22-10Z" transform="translate(-128.78 -140.74)" fill="#9e0202"/>
      <path d="M763.76,601.54c-.27,0-.33.05-.44.33l-2.59,6.28A8.52,8.52,0,0,0,760,611c0,.83.44,1.32,1.93,1.32h.71c.61,0,.72.22.72.5s-.28.5-.77.5c-1.6,0-3.86-.17-5.41-.17-.49,0-3.08.17-5.62.17-.61,0-.88-.11-.88-.5a.48.48,0,0,1,.55-.5c.44,0,1-.05,1.44-.05,2.2-.33,3-1.77,4-4.14l12.68-29.49c.56-1.32.94-1.87,1.44-1.87.72,0,.94.44,1.43,1.49,1.16,2.59,9.27,21.77,12.35,28.88,1.87,4.25,3.25,4.85,4.13,5a11.55,11.55,0,0,0,1.82.16c.44,0,.66.17.66.5s-.27.5-2.09.5-5.24,0-9.32-.11c-.88-.06-1.44-.06-1.44-.39s.11-.44.61-.5a.74.74,0,0,0,.44-1l-3.75-9.43a.46.46,0,0,0-.5-.33Zm10.37-2.59c.22,0,.28-.11.22-.28l-4.58-11.91c-.06-.17-.11-.44-.22-.44s-.22.28-.28.44l-4.69,11.85c-.11.22,0,.33.17.33Z" transform="translate(-128.78 -140.74)" fill="#9e0202"/>
      <path d="M799.54,606.94c.11,3.64.72,4.74,1.65,5.07a8.17,8.17,0,0,0,2.54.33c.55,0,.82.22.82.5s-.44.5-1.1.5c-3.14,0-5.4-.17-6.29-.17-.44,0-2.75.17-5.23.17-.66,0-1.11-.06-1.11-.5,0-.27.33-.5.77-.5a10,10,0,0,0,2.2-.22c1.27-.33,1.43-1.6,1.49-5.68l.44-27.78c0-.94.33-1.6.83-1.6s1.27.72,2.1,1.55c.61.61,7.88,8,14.94,14.94,3.31,3.25,9.76,9.87,10.48,10.53h.22l-.5-20.84c-.05-2.87-.49-3.69-1.65-4.14a8.17,8.17,0,0,0-2.54-.28c-.61,0-.77-.22-.77-.5s.49-.44,1.21-.44c2.53,0,5.13.11,6.18.11.55,0,2.37-.11,4.74-.11.66,0,1.11.06,1.11.44s-.28.5-.83.5a4.92,4.92,0,0,0-1.49.17c-1.32.39-1.71,1.21-1.77,3.86l-.55,29.55c0,1-.39,1.49-.77,1.49a2.88,2.88,0,0,1-2-1c-3-2.81-9.1-8.6-14.17-13.51-5.29-5.07-10.42-10.75-11.36-11.58H799Z" transform="translate(-128.78 -140.74)" fill="#9e0202"/>
      <path d="M848.12,601.15a9.33,9.33,0,0,0-1.1-4.9c-.33-.72-6.94-11-8.66-13.51a10.68,10.68,0,0,0-3.14-3.31,4.84,4.84,0,0,0-2-.61c-.39,0-.72-.17-.72-.5s.33-.44.94-.44c.82,0,4.46.11,6.06.11,1,0,3.3-.11,5.51-.11.44,0,.72.11.72.44s-.33.39-1.1.61c-.39.11-.66.33-.66.72a3.61,3.61,0,0,0,.61,1.6c.88,1.43,7.22,12.41,8,13.73.61-1.1,6.5-11.13,7.22-12.57a6.14,6.14,0,0,0,.72-2.48c0-.44-.22-.88-1-1-.44-.11-.88-.16-.88-.55s.27-.44.82-.44c1.6,0,3.31.11,4.74.11,1,0,4.24-.11,5.18-.11.56,0,.89.11.89.39s-.39.55-.94.55a5.93,5.93,0,0,0-2.1.55,6.49,6.49,0,0,0-2.54,2.2,158.23,158.23,0,0,0-9.43,15,11,11,0,0,0-.6,4.69V605c0,.77,0,2.7.11,4.69.11,1.38.55,2.26,2,2.48a18.34,18.34,0,0,0,2.42.16c.56,0,.83.28.83.5s-.39.5-1,.5c-3,0-6.28-.17-7.61-.17s-4.46.17-6.29.17c-.66,0-1-.11-1-.5,0-.22.22-.5.77-.5a7.43,7.43,0,0,0,1.71-.16c1-.22,1.38-1.1,1.49-2.48.17-2,.17-3.92.17-4.69Z" transform="translate(-128.78 -140.74)" fill="#9e0202"/>
    </g>
    <g>
      <path d="M587.28,336.92a94.11,94.11,0,0,0-13.88-42.25,95.27,95.27,0,0,0-31.61-31.22,94.44,94.44,0,0,0-86.23-5.78A94.62,94.62,0,0,0,405.3,379.5l.78,1.89.35.84.75,1.67-6.82,3.16,22.13,6.32,7.34-19.82-6.39,2.87-.61-1.35-.29-.68-.64-1.53a76.62,76.62,0,0,1,110.63-94.13,77.37,77.37,0,0,1,25.67,25.35,76.12,76.12,0,0,1,11.24,34.21,77.21,77.21,0,0,1-5.67,35.61c-.58,1.4-1.21,2.78-1.87,4.14A43.46,43.46,0,0,1,559.8,382c-1.78,3.12-3.4,6.06-5.05,9.13-3.28,6.1-6.42,12.28-9.36,18.65a168.69,168.69,0,0,0-7.9,20c-.55,1.79-1,3.58-1.51,5.54l-.34,1.54-.24,1.25c-.09.46-.26,1.19-.44,1.85a46.7,46.7,0,0,1-2.95,8c-2.41,5.06-5.71,9.16-9.41,11.21a14.1,14.1,0,0,1-5.95,1.79l-.81,0H471.64c-1,0-1.42,0-2,0a15,15,0,0,1-1.58-.18c-4.08-.68-7.72-3.21-10.78-7.41a36.68,36.68,0,0,1-4-7.1,45.93,45.93,0,0,1-2.58-7.91l-.52-2.62-.67-2.79c-.48-1.84-1-3.62-1.58-5.38-1.13-3.5-2.41-6.88-3.77-10.17-2.71-6.59-5.76-12.91-9-19.09-1.6-3.09-2.73-5.16-4.41-8.19-1.13,4.11-2.3,8.19-3.57,12.21q-6-1.89-12.06-3.52c1.61,2.89,2.65,4.8,4.17,7.72,3,5.84,5.86,11.74,8.31,17.67,1.22,3,2.33,5.93,3.29,8.87.47,1.47.9,2.93,1.28,4.37l.52,2.14.47,2.36a62.51,62.51,0,0,0,3.67,11.38,54.23,54.23,0,0,0,6,10.58,38.84,38.84,0,0,0,9.32,9.22,32.31,32.31,0,0,0,12.87,5.27,33.5,33.5,0,0,0,3.47.41c1.15.08,2.38.07,3.11.07H514.8l1.49,0c.57,0,1.15,0,1.73-.09a32.1,32.1,0,0,0,13.34-4c8.2-4.66,13.34-12,16.76-19a64.1,64.1,0,0,0,4.1-11.06c.26-1,.49-1.9.73-3.1l.24-1.24.21-.94c.32-1.34.72-2.81,1.17-4.25a151.33,151.33,0,0,1,7.06-17.77c2.73-5.93,5.73-11.83,8.86-17.66,1.56-2.89,3.21-5.88,4.78-8.64.75-1.21,2-3.44,2.71-5s1.6-3.38,2.31-5.11A95,95,0,0,0,587.28,336.92Z" transform="translate(-128.78 -140.74)" fill="#9e0202"/>
      <path d="M522.6,490.88H463.53a6.27,6.27,0,0,0,0,12.54H522.6a6.27,6.27,0,1,0,0-12.54Z" transform="translate(-128.78 -140.74)" fill="#9e0202"/>
      <path d="M522.6,514.81H463.53a6.27,6.27,0,0,0,0,12.54H522.6a6.27,6.27,0,1,0,0-12.54Z" transform="translate(-128.78 -140.74)" fill="#9e0202"/>
      <path d="M516.33,538.43H469.78a15,15,0,0,0-4,.44c-.83.26-.83.59,0,.86l23.28,7.54a15,15,0,0,0,4,.42,15.2,15.2,0,0,0,4-.42l23-7.47c.57-.14.9-.32.9-.51,0-.47-2.08-.86-4.62-.86Z" transform="translate(-128.78 -140.74)" fill="#9e0202"/>
      <path d="M475.81,227.2a67.62,67.62,0,0,0,9.54-8.91,54.87,54.87,0,0,1-1,9.64,75.71,75.71,0,1,1-4.68-40q1.46,3.6,2.55,7.34l.41,1.49.24.91.44,1.82,7.57-1.84c-3.52,7.12-9.6,13.74-14.62,18.75-5-5-12.05-8.53-17.8-11.2l7.41-1.74-.33-1.39-.19-.69-.31-1.14a56.37,56.37,0,0,0-1.95-5.6,57.85,57.85,0,1,0,3.57,30.53c.44-2.9.73-2.89.74-5.83C470.41,222,473.26,223.85,475.81,227.2Z" transform="translate(-128.78 -140.74)" fill="#9e0202"/>
    </g>
  </g>
</svg>
