<svg xmlns="http://www.w3.org/2000/svg" xmlns:xlink="http://www.w3.org/1999/xlink" version="1.1" x="0px" y="0px" viewBox="0 0 100 100" style="enable-background:new 0 0 100 100;" xml:space="preserve"><style type="text/css">
	.st0{fill:#1E120D;}
</style><g><path d="M92.1,58.2c0-1.6-0.5-3.2-1.4-4.5c1.9-1.5,3.2-3.8,3.2-6.4c0-4.4-3.6-8-7.9-8c0,0,0,0,0,0H66.6l1.6-9c0,0,0,0,0,0   c0.2-1.3,0.4-2.7,0.4-4.1c0-2.9-0.5-5.8-1.6-8.5c0,0,0,0,0,0c0,0,0,0,0,0l-2-4.9c0-0.1-0.1-0.2-0.2-0.3c-1.3-2.8-4.1-4.7-7.3-4.7   c-4.4,0-8,3.6-8,8v4.7c0,3.9-1.2,7.5-3.4,10.7l-11.6,16c-0.7-0.8-1.7-1.3-2.8-1.3H9.1c-2,0-3.7,1.7-3.7,3.7v37.7   c0,2,1.7,3.7,3.7,3.7h22.6c2,0,3.7-1.7,3.7-3.7v-3.3c1,0.3,2,0.9,3.1,1.4c2.3,1.2,5,2.6,8.5,2.6h33.5c4.4,0,8-3.6,8-8   c0-1.6-0.5-3.1-1.3-4.4c1.9-1.5,3.2-3.8,3.2-6.4c0-1.6-0.5-3.1-1.4-4.4C90.8,63.2,92.1,60.9,92.1,58.2z M30.3,85.9h-20V50.8h20   V85.9z M80.4,82.9H46.9c-2.3,0-4.1-0.9-6.2-2c-1.6-0.8-3.3-1.7-5.4-2.2V54.5L50,34.2c0,0,0,0,0,0c0,0,0,0,0-0.1l0.2-0.3   c0-0.1,0.1-0.1,0.1-0.2c2.5-3.6,3.8-7.8,4-12.1c0-0.1,0-0.3,0-0.4v-5.3c0-1.7,1.4-3,3-3c1.3,0,2.4,0.8,2.9,2c0,0,0,0,0,0l1.9,4.8   c0.8,2.1,1.3,4.4,1.3,6.7c0,1.1-0.1,2.1-0.3,3.2c0,0,0,0,0,0l-2.1,12c0,0.1,0,0.2,0,0.2c0,0.1,0,0.1,0,0.2c0,0,0,0,0,0   c0,0.1,0,0.2,0,0.3c0,0.1,0,0.1,0,0.2c0,0.1,0.1,0.2,0.1,0.3c0,0.1,0,0.1,0.1,0.2c0,0.1,0.1,0.1,0.1,0.2c0,0.1,0.1,0.1,0.1,0.2   c0,0.1,0.1,0.1,0.2,0.2c0.1,0.1,0.1,0.1,0.2,0.2c0.1,0.1,0.1,0.1,0.2,0.2c0.1,0,0.1,0.1,0.2,0.1c0.1,0,0.1,0.1,0.2,0.1   c0.1,0,0.1,0.1,0.2,0.1c0.1,0,0.1,0,0.2,0.1c0.1,0,0.2,0.1,0.3,0.1c0,0,0,0,0,0c0.1,0,0.3,0,0.4,0c0,0,0,0,0,0h22.3   c1.7,0,3,1.4,3,3s-1.4,3-3,3c-0.2,0-0.4,0-0.6,0.1c-0.1,0-0.2,0.1-0.3,0.1c0,0,0,0,0,0c-0.7,0.3-1.2,0.8-1.5,1.5   c-0.5,1.3,0.2,2.7,1.5,3.2c1.3,0.4,2.1,1.6,2.1,2.9c0,1.7-1.4,3.1-3.1,3.1c0,0-0.1,0-0.1,0c-1.1,0-2.1,0.7-2.5,1.8   c-0.4,1.3,0.4,2.7,1.7,3.1c1.3,0.4,2.1,1.6,2.1,2.9c0,1.6-1.3,3-3,3c-0.8,0-1.4,0.4-1.9,0.9c0,0-0.1,0.1-0.1,0.1c0,0,0,0.1-0.1,0.1   c-0.1,0.2-0.3,0.4-0.4,0.7c-0.4,1.3,0.3,2.7,1.6,3.2c1.2,0.4,2,1.5,2,2.8C83.4,81.5,82.1,82.9,80.4,82.9z"></path></g></svg>