<svg id="Layer_1" data-name="Layer 1" xmlns="http://www.w3.org/2000/svg" viewBox="0 0 253.76 406.95"><defs><style>.cls-1{fill:#9e0202;}</style></defs><title>Seattle-Scrum-Company-bulbs-only</title><path class="cls-1" d="M587.28,336.92a94.07,94.07,0,0,0-13.88-42.25,95.21,95.21,0,0,0-31.61-31.22,94.46,94.46,0,0,0-86.23-5.78A94.63,94.63,0,0,0,405.3,379.5l.79,1.89.35.84.75,1.67-6.82,3.16,22.14,6.33,7.33-19.82-6.39,2.87-.61-1.35-.29-.68-.64-1.53a76.63,76.63,0,1,1,141.87,1.05c-.57,1.4-1.2,2.78-1.87,4.14A43.73,43.73,0,0,1,559.8,382c-1.78,3.12-3.4,6.06-5,9.13-3.28,6.1-6.42,12.29-9.36,18.65a169.37,169.37,0,0,0-7.9,20c-.55,1.8-1,3.58-1.51,5.55l-.34,1.53-.24,1.25c-.09.46-.26,1.19-.44,1.85a47.18,47.18,0,0,1-3,8c-2.41,5.05-5.71,9.15-9.41,11.2a14.18,14.18,0,0,1-5.94,1.8l-.81,0H471.64c-1,0-1.43,0-2,0s-1.07-.09-1.58-.18c-4.08-.68-7.72-3.21-10.78-7.41a36.65,36.65,0,0,1-4-7.1,45.48,45.48,0,0,1-2.58-7.91l-.53-2.62-.67-2.8c-.48-1.83-1-3.62-1.57-5.37-1.14-3.5-2.41-6.88-3.77-10.18-2.72-6.59-5.77-12.91-9-19.09-1.6-3.09-2.73-5.16-4.41-8.19-1.13,4.12-2.31,8.2-3.57,12.22q-6-1.89-12.06-3.52c1.61,2.89,2.65,4.8,4.17,7.72,3,5.84,5.86,11.74,8.31,17.67,1.21,3,2.32,5.93,3.28,8.87.47,1.47.91,2.93,1.28,4.37l.52,2.14.47,2.36a61.87,61.87,0,0,0,3.67,11.38,53.7,53.7,0,0,0,5.95,10.59,38.71,38.71,0,0,0,9.32,9.22,32.36,32.36,0,0,0,12.87,5.27c1.16.2,2.31.32,3.47.41s2.38.07,3.11.07H514.8l1.5,0c.57,0,1.15,0,1.73-.08a32.26,32.26,0,0,0,13.34-4c8.2-4.66,13.34-12,16.76-19.05a63.94,63.94,0,0,0,4.1-11.06c.26-1,.49-1.9.73-3.1l.24-1.24.21-.94c.32-1.33.72-2.81,1.17-4.25a149.57,149.57,0,0,1,7.06-17.78c2.73-5.93,5.72-11.83,8.85-17.66,1.56-2.89,3.21-5.87,4.78-8.63.75-1.21,2-3.44,2.7-5s1.61-3.39,2.32-5.11A95,95,0,0,0,587.28,336.92Z" transform="translate(-333.81 -140.74)"/><path class="cls-1" d="M522.6,490.88H463.53a6.28,6.28,0,0,0,0,12.55H522.6a6.28,6.28,0,1,0,0-12.55Z" transform="translate(-333.81 -140.74)"/><path class="cls-1" d="M522.6,514.81H463.53a6.27,6.27,0,0,0,0,12.54H522.6a6.27,6.27,0,1,0,0-12.54Z" transform="translate(-333.81 -140.74)"/><path class="cls-1" d="M516.33,538.43H469.78a14.82,14.82,0,0,0-4,.44c-.83.26-.83.59,0,.86l23.28,7.54a18.82,18.82,0,0,0,8,0l23-7.47c.57-.14.9-.32.9-.51,0-.46-2.07-.86-4.62-.86Z" transform="translate(-333.81 -140.74)"/><path class="cls-1" d="M475.81,227.2a68.5,68.5,0,0,0,9.54-8.91,55,55,0,0,1-1,9.64,75.72,75.72,0,1,1-4.68-40c1,2.4,1.83,4.85,2.56,7.34l.41,1.49.24.91.44,1.82,7.57-1.84c-3.52,7.12-9.6,13.75-14.62,18.76-5-5-12.05-8.54-17.8-11.2l7.41-1.74-.33-1.39-.19-.69-.31-1.14a56,56,0,0,0-1.95-5.59,57.84,57.84,0,1,0,3.57,30.53c.44-2.9.74-2.89.74-5.83C470.41,222,473.26,223.85,475.81,227.2Z" transform="translate(-333.81 -140.74)"/></svg>