<svg height='100px' width='100px'  fill="#000000" xmlns="http://www.w3.org/2000/svg" xmlns:xlink="http://www.w3.org/1999/xlink" version="1.1" x="0px" y="0px" viewBox="0 0 100 50" enable-background="new 0 0 100 50" xml:space="preserve"><path fill="#000000" stroke="#000000" stroke-miterlimit="10" d="M35.076,45.867c-10.039,0-18.206-6.633-18.206-14.787  c0-8.153,8.167-14.787,18.206-14.787s18.207,6.633,18.207,14.787C53.282,39.234,45.114,45.867,35.076,45.867z M35.076,16.777  c-9.773,0-17.723,6.417-17.723,14.303c0,7.888,7.95,14.305,17.723,14.305S52.8,38.968,52.8,31.08  C52.8,23.193,44.849,16.777,35.076,16.777z"></path><path fill="#000000" stroke="#000000" stroke-miterlimit="10" d="M72.627,41.695c-2.838,0-5.561-0.519-8.092-1.541l-0.353-0.143  l0.278-0.258c2.793-2.598,4.332-5.925,4.332-9.369c0-5.451-3.757-10.356-9.804-12.8l-0.353-0.142l0.278-0.259  c3.462-3.218,8.46-5.063,13.712-5.063c10.04,0,18.207,6.633,18.207,14.786C90.834,35.062,82.667,41.695,72.627,41.695z   M65.065,39.844c2.375,0.908,4.916,1.368,7.562,1.368c9.773,0,17.724-6.417,17.724-14.305c0-7.887-7.95-14.304-17.724-14.304  c-4.99,0-9.743,1.702-13.104,4.681c6.026,2.565,9.753,7.556,9.753,13.101C69.276,33.849,67.784,37.193,65.065,39.844z"></path><rect x="51.712" y="10.948" transform="matrix(0.1052 0.9944 -0.9944 0.1052 64.5005 -35.4575)" fill="#000000" stroke="#000000" stroke-miterlimit="10" width="0.483" height="14.33"></rect><rect x="56.871" y="32.178" transform="matrix(0.0911 0.9958 -0.9958 0.0911 92.4322 -19.8893)" fill="#000000" stroke="#000000" stroke-miterlimit="10" width="0.482" height="17.027"></rect><path fill="#000000" stroke="#000000" stroke-miterlimit="10" d="M25.081,48.353c-1.437,0-2.837-0.285-4.136-0.85  c-5.263-2.289-8.452-7.825-9.884-10.921C8.64,31.35,7.774,25.477,8.557,19.6c0.755-5.67,2.578-9.887,5.417-12.536  c3.906-3.643,9.766-4.247,14.984-4.356c5.587-0.118,11.899,0.084,16.804,2.379c1.521-1.046,3.888-1.797,3.923-1.806  c5.698-1.493,11.697-0.955,17.499-0.433l0.527,0.047c6.688,0.598,11.909,0.408,16.928-0.617c1.335-0.272,2.686-0.585,3.992-0.888  l0.123,0.467c-1.323,0.307-2.678,0.621-4.019,0.894C79.67,3.786,74.406,3.979,67.667,3.376l-0.526-0.047  c-5.762-0.517-11.718-1.052-17.334,0.419c-0.604,0.158-2.33,0.818-3.543,1.583c0.082,0.042,0.163,0.084,0.244,0.127  c0.525,0.277,1.499,0.792,1.674,1.502c0.064,0.265,0.012,0.522-0.155,0.766c-0.491,0.713-1.914,0.527-2.508,0.23  c-0.722-0.359-1.062-0.805-1.008-1.324c0.043-0.423,0.358-0.834,0.813-1.216c-4.782-2.153-10.917-2.342-16.355-2.227  C23.841,3.299,18.09,3.886,14.303,7.418c-2.756,2.57-4.527,6.689-5.267,12.245C8.266,25.449,9.117,31.229,11.5,36.379  c1.404,3.033,4.522,8.456,9.637,10.681c1.921,0.835,4.077,1.028,6.235,0.562c0.255-0.056,0.541-0.103,0.84-0.151  c1.199-0.192,2.559-0.412,3.078-1.37l0.424,0.23c-0.632,1.167-2.182,1.416-3.426,1.617c-0.291,0.047-0.567,0.092-0.814,0.146  C26.673,48.266,25.872,48.353,25.081,48.353z M45.808,5.645c-0.463,0.348-0.782,0.706-0.816,1.039  C44.96,6.98,45.21,7.264,45.734,7.524c0.47,0.234,1.594,0.365,1.895-0.072c0.089-0.127,0.115-0.247,0.083-0.376  c-0.122-0.499-1.037-0.983-1.428-1.19C46.127,5.803,45.968,5.723,45.808,5.645z"></path><path fill="none" stroke="#000000" stroke-miterlimit="10" d="M25.558,19.022c0,9.078,11.806,16.424,26.396,16.424"></path><path fill="none" stroke="#000000" stroke-miterlimit="10" d="M22.228,21.24c0,9.419,12.592,17.04,28.154,17.04"></path><path fill="none" stroke="#000000" stroke-miterlimit="10" d="M19.978,23.598c0,9.959,12.108,18.019,27.073,18.019"></path><path fill="none" stroke="#000000" stroke-miterlimit="10" d="M18.005,27.234c0,8.964,11.61,16.216,25.957,16.216"></path><path fill="none" stroke="#000000" stroke-miterlimit="10" d="M25.462,38.614c-1.428,0.698-2.95,1.075-4.53,1.075"></path><path fill="none" stroke="#000000" stroke-miterlimit="10" d="M35.832,16.791c0,5.1-1.082,9.809-2.914,13.612"></path><path fill="none" stroke="#000000" stroke-miterlimit="10" d="M29.043,40.51c-1.637,1.024-3.411,1.584-5.263,1.584"></path><path fill="none" stroke="#000000" stroke-miterlimit="10" d="M38.755,17.087c0,5.597-1.098,10.762-2.956,14.928"></path><path fill="none" stroke="#000000" stroke-miterlimit="10" d="M33.022,41.947c-1.679,1.341-3.527,2.084-5.467,2.084"></path><path fill="none" stroke="#000000" stroke-miterlimit="10" d="M41.527,17.76c0,5.809-1,11.173-2.693,15.521"></path><path fill="none" stroke="#000000" stroke-miterlimit="10" d="M37.433,42.934c-1.323,1.517-2.792,2.361-4.338,2.361"></path><path fill="none" stroke="#000000" stroke-miterlimit="10" d="M43.628,18.556c0,5.822-0.731,11.206-1.974,15.595"></path><path fill="none" stroke="#000000" stroke-miterlimit="10" d="M83.277,15.481c0,14.09-6.215,25.49-13.896,25.49"></path><path fill="none" stroke="#000000" stroke-miterlimit="10" d="M86.241,17.76c0,12.83-4.644,23.212-10.382,23.212"></path><path fill="none" stroke="#000000" stroke-miterlimit="10" d="M80.292,14.012c0,14.459-6.565,26.159-14.679,26.159"></path><path fill="none" stroke="#000000" stroke-miterlimit="10" d="M77.936,13.26c0,12.264-4.364,22.187-9.758,22.187"></path><path fill="none" stroke="#000000" stroke-miterlimit="10" d="M77.495,19.886c-3.608-3.43-8.295-5.5-13.421-5.5"></path><path fill="none" stroke="#000000" stroke-miterlimit="10" d="M84.729,37.345c0-1.908-0.209-3.762-0.603-5.534"></path><path fill="none" stroke="#000000" stroke-miterlimit="10" d="M76.929,23.099c-3.938-4.38-9.526-7.114-15.729-7.114"></path><path fill="none" stroke="#000000" stroke-miterlimit="10" d="M82.796,38.614c0-1.076-0.07-2.134-0.209-3.17"></path><path fill="none" stroke="#000000" stroke-miterlimit="10" d="M76.148,26.069c-3.246-4.271-7.995-6.963-13.291-6.963"></path><path fill="none" stroke="#000000" stroke-miterlimit="10" d="M80.575,39.689c0-0.405-0.01-0.809-0.03-1.208"></path><path fill="none" stroke="#000000" stroke-miterlimit="10" d="M77.854,16.136c-2.564-2.061-5.561-3.243-8.764-3.243"></path><path fill="none" stroke="#000000" stroke-miterlimit="10" d="M86.241,36.057c0-2.831-0.376-5.543-1.062-8.05"></path></svg>