<svg id="Layer_1" data-name="Layer 1" xmlns="http://www.w3.org/2000/svg" xmlns:xlink="http://www.w3.org/1999/xlink" viewBox="0 0 427.8 196.81"><defs><style>.cls-1,.cls-4,.cls-5,.cls-7{fill:none;}.cls-2{clip-path:url(#clip-path);}.cls-3{fill:#283583;}.cls-4,.cls-5{stroke:#283583;}.cls-4{stroke-width:16.44px;}.cls-5{stroke-width:26.3px;}.cls-6{fill:#fff;}.cls-7{stroke:#fff;stroke-width:3.29px;}</style><clipPath id="clip-path" transform="translate(-63.22 -42.75)"><rect class="cls-1" x="-143" y="-63.55" width="841.89" height="1190.55"/></clipPath></defs><title>LeSS-logo</title><g class="cls-2"><path class="cls-3" d="M341.42,128.23v16.19l10.66-3.31L364,137.4l5.78-1.8v-8c0-19.48-8.55-28.17-27.72-28.17H297.75c-19.57,0-27.56,8.62-27.56,29.76v7.94c0,21.14,8,29.76,27.56,29.76h44v10.93H296.3V160.76L286,163.44l-12.89,3.35-6.15,1.6v8.83c0,21.14,8,29.76,27.72,29.76h48.51c19.57,0,27.56-8.62,27.56-29.76V167c0-21.14-8-29.76-27.56-29.76H299v-9h42.38Z" transform="translate(-63.22 -42.75)"/><path class="cls-4" d="M341.42,128.23v16.19l10.66-3.31L364,137.4l5.78-1.8v-8c0-19.48-8.55-28.17-27.72-28.17H297.75c-19.57,0-27.56,8.62-27.56,29.76v7.94c0,21.14,8,29.76,27.56,29.76h44v10.93H296.3V160.76L286,163.44l-12.89,3.35-6.15,1.6v8.83c0,21.14,8,29.76,27.72,29.76h48.51c19.57,0,27.56-8.62,27.56-29.76V167c0-21.14-8-29.76-27.56-29.76H299v-9h42.38Z" transform="translate(-63.22 -42.75)"/><path class="cls-3" d="M81.24,160.21L161.58,223l6.48,5.06,5.06-6.48,7.83-10,5.06-6.48L179.52,200l-62.94-49.16,55.8-71.42,5.06-6.48L171,67.88,160,59.35l-6.48-5.06-5.06,6.48L79.82,148.67l-5.06,6.48Z" transform="translate(-63.22 -42.75)"/><path class="cls-4" d="M81.24,160.21L161.58,223l6.48,5.06,5.06-6.48,7.83-10,5.06-6.48L179.52,200l-62.94-49.16,55.8-71.42,5.06-6.48L171,67.88,160,59.35l-6.48-5.06-5.06,6.48L79.82,148.67l-5.06,6.48Z" transform="translate(-63.22 -42.75)"/><path class="cls-3" d="M453.47,128.23v16.19l10.66-3.31,11.93-3.71,5.78-1.8v-8c0-19.48-8.55-28.17-27.72-28.17H409.8c-19.57,0-27.56,8.62-27.56,29.76v7.94c0,21.14,8,29.76,27.56,29.76h44v10.93H408.35V160.76l-10.29,2.68-12.89,3.35-6.15,1.6v8.83c0,21.14,8,29.76,27.72,29.76h48.51c19.57,0,27.56-8.62,27.56-29.76V167c0-21.14-8-29.76-27.56-29.76H411.09v-9h42.38Z" transform="translate(-63.22 -42.75)"/><path class="cls-4" d="M453.47,128.23v16.19l10.66-3.31,11.93-3.71,5.78-1.8v-8c0-19.48-8.55-28.17-27.72-28.17H409.8c-19.57,0-27.56,8.62-27.56,29.76v7.94c0,21.14,8,29.76,27.56,29.76h44v10.93H408.35V160.76l-10.29,2.68-12.89,3.35-6.15,1.6v8.83c0,21.14,8,29.76,27.72,29.76h48.51c19.57,0,27.56-8.62,27.56-29.76V167c0-21.14-8-29.76-27.56-29.76H411.09v-9h42.38Z" transform="translate(-63.22 -42.75)"/><path class="cls-3" d="M252.83,143.43a34.09,34.09,0,0,0-6.85-12,32.26,32.26,0,0,0-11.3-8.06,38.73,38.73,0,0,0-15.65-3,40.84,40.84,0,0,0-17.14,3.43,37.35,37.35,0,0,0-12.6,9.17,38.83,38.83,0,0,0-7.69,13.25,48.25,48.25,0,0,0,0,31.21,35.06,35.06,0,0,0,8,13,38,38,0,0,0,13.52,8.8,52,52,0,0,0,19.27,3.24,80.69,80.69,0,0,0,13.15-1.2A134.12,134.12,0,0,0,250,198l-2.59-16.3a116.69,116.69,0,0,1-11.95,3.06,56.48,56.48,0,0,1-11,1.2q-12.23,0-17.78-4.91a21.38,21.38,0,0,1-6.85-13.25h54.83a33.36,33.36,0,0,0,.46-4.72q0.09-2.68.09-4.72a46.9,46.9,0,0,0-2.32-14.91m-52.7,11.21q1.11-8.52,5.93-13.15t12.6-4.63q8,0,12.51,4.82t5.28,13H200.13Z" transform="translate(-63.22 -42.75)"/><path class="cls-5" d="M252.83,143.43a34.09,34.09,0,0,0-6.85-12,32.26,32.26,0,0,0-11.3-8.06,38.73,38.73,0,0,0-15.65-3,40.84,40.84,0,0,0-17.14,3.43,37.35,37.35,0,0,0-12.6,9.17,38.83,38.83,0,0,0-7.69,13.25,48.25,48.25,0,0,0,0,31.21,35.06,35.06,0,0,0,8,13,38,38,0,0,0,13.52,8.8,52,52,0,0,0,19.27,3.24,80.69,80.69,0,0,0,13.15-1.2A134.12,134.12,0,0,0,250,198l-2.59-16.3a116.69,116.69,0,0,1-11.95,3.06,56.48,56.48,0,0,1-11,1.2q-12.23,0-17.78-4.91a21.38,21.38,0,0,1-6.85-13.25h54.83a33.36,33.36,0,0,0,.46-4.72q0.09-2.68.09-4.72A46.9,46.9,0,0,0,252.83,143.43Zm-52.7,11.21q1.11-8.52,5.93-13.15t12.6-4.63q8,0,12.51,4.82t5.28,13H200.13Z" transform="translate(-63.22 -42.75)"/><path class="cls-6" d="M348,121.66v13.83l2.13-.66,11.92-3.71,1.16-.36V127.6c0-15.94-5.53-21.59-21.14-21.59H297.75c-15.88,0-21,5.63-21,23.18v7.95c0,17.55,5.1,23.18,21,23.18h50.57V184.4H289.72V169.26l-2.06.54-12.89,3.35-1.23.32v3.74c0,17.55,5.14,23.18,21.14,23.18h48.51c15.88,0,21-5.63,21-23.18V167c0-17.55-5.1-23.18-21-23.18H292.46V121.66H348Z" transform="translate(-63.22 -42.75)"/><path class="cls-7" d="M348,121.66v13.83l2.13-.66,11.92-3.71,1.16-.36V127.6c0-15.94-5.53-21.59-21.14-21.59H297.75c-15.88,0-21,5.63-21,23.18v7.95c0,17.55,5.1,23.18,21,23.18h50.57V184.4H289.72V169.26l-2.06.54-12.89,3.35-1.23.32v3.74c0,17.55,5.14,23.18,21.14,23.18h48.51c15.88,0,21-5.63,21-23.18V167c0-17.55-5.1-23.18-21-23.18H292.46V121.66H348Z" transform="translate(-63.22 -42.75)"/><path class="cls-6" d="M85.25,155.08l80.34,62.75,1.29,1,1-1.3,7.83-10,1-1.3-1.29-1L107.32,152,167.2,75.37l1-1.3-1.3-1L156,64.53l-1.3-1-1,1.3L85,152.77l-1,1.3Z" transform="translate(-63.22 -42.75)"/><path class="cls-7" d="M85.25,155.08l80.34,62.75,1.29,1,1-1.3,7.83-10,1-1.3-1.29-1L107.32,152,167.2,75.37l1-1.3-1.3-1L156,64.53l-1.3-1-1,1.3L85,152.77l-1,1.3Z" transform="translate(-63.22 -42.75)"/><path class="cls-6" d="M460,121.66v13.83l2.13-.66,11.92-3.71,1.16-.36V127.6c0-15.94-5.53-21.59-21.14-21.59H409.8c-15.88,0-21,5.63-21,23.18v7.95c0,17.55,5.1,23.18,21,23.18h50.57V184.4H401.77V169.26l-2.06.54-12.89,3.35-1.23.32v3.74c0,17.55,5.14,23.18,21.14,23.18h48.51c15.88,0,21-5.63,21-23.18V167c0-17.55-5.1-23.18-21-23.18H404.51V121.66H460Z" transform="translate(-63.22 -42.75)"/><path class="cls-7" d="M460,121.66v13.83l2.13-.66,11.92-3.71,1.16-.36V127.6c0-15.94-5.53-21.59-21.14-21.59H409.8c-15.88,0-21,5.63-21,23.18v7.95c0,17.55,5.1,23.18,21,23.18h50.57V184.4H401.77V169.26l-2.06.54-12.89,3.35-1.23.32v3.74c0,17.55,5.14,23.18,21.14,23.18h48.51c15.88,0,21-5.63,21-23.18V167c0-17.55-5.1-23.18-21-23.18H404.51V121.66H460Z" transform="translate(-63.22 -42.75)"/><path class="cls-6" d="M252.83,143.43a34.09,34.09,0,0,0-6.85-12,32.26,32.26,0,0,0-11.3-8.06,38.73,38.73,0,0,0-15.65-3,40.84,40.84,0,0,0-17.14,3.43,37.35,37.35,0,0,0-12.6,9.17,38.83,38.83,0,0,0-7.69,13.25,48.25,48.25,0,0,0,0,31.21,35.06,35.06,0,0,0,8,13,38,38,0,0,0,13.52,8.8,52,52,0,0,0,19.27,3.24,80.69,80.69,0,0,0,13.15-1.2A134.12,134.12,0,0,0,250,198l-2.59-16.3a116.69,116.69,0,0,1-11.95,3.06,56.48,56.48,0,0,1-11,1.2q-12.23,0-17.78-4.91a21.38,21.38,0,0,1-6.85-13.25h54.83a33.36,33.36,0,0,0,.46-4.72q0.09-2.68.09-4.72a46.9,46.9,0,0,0-2.32-14.91m-52.7,11.21q1.11-8.52,5.93-13.15t12.6-4.63q8,0,12.51,4.82t5.28,13H200.13Z" transform="translate(-63.22 -42.75)"/></g></svg>